<?xml version="1.0" encoding="UTF-8"?>
<svg version="1.1" xmlns="http://www.w3.org/2000/svg" width="256" height="256">
<path d="M0 0 C84.48 0 168.96 0 256 0 C256 84.48 256 168.96 256 256 C171.52 256 87.04 256 0 256 C0 171.52 0 87.04 0 0 Z " fill="#FDFDFD" transform="translate(0,0)"/>
<path d="M0 0 C0.66 0 1.32 0 2 0 C2.268125 0.969375 2.53625 1.93875 2.8125 2.9375 C3.4003125 4.4534375 3.4003125 4.4534375 4 6 C4.99 6.33 5.98 6.66 7 7 C7.061875 7.99 7.12375 8.98 7.1875 10 C7.625793 13.09274354 8.51840868 15.0982553 10.25 17.6875 C25.53634246 40.94741014 25.15287995 75.99343234 20.04296875 102.51171875 C17.00905037 116.28661384 13.0652689 130.52864098 1 139 C-3.05558756 141.18377792 -6.42741228 141.54251041 -11 141 C-20.40358696 136.82659855 -25.14190474 129.15823268 -29 120 C-30.52894326 115.71242958 -31.8391859 111.40103928 -33 107 C-33.25442871 106.12972168 -33.50885742 105.25944336 -33.77099609 104.36279297 C-36.19672407 95.28898678 -36.46118114 86.61314537 -36.39111328 77.29052734 C-36.37511002 74.76734624 -36.39100069 72.24578734 -36.41015625 69.72265625 C-36.43500797 51.03598726 -33.67095219 33.18327163 -23.9375 16.91015625 C-22.61994639 14.22564076 -22.62459358 11.92817006 -23 9 C-21.68 8.67 -20.36 8.34 -19 8 C-18.67 6.35 -18.34 4.7 -18 3 C-17.01 3 -16.02 3 -15 3 C-14.67 4.32 -14.34 5.64 -14 7 C-13.34 6.67 -12.68 6.34 -12 6 C-10.33555539 5.9044069 -8.66718037 5.87015355 -7 5.875 C-6.113125 5.87242188 -5.22625 5.86984375 -4.3125 5.8671875 C-2 6 -2 6 0 7 C0 4.69 0 2.38 0 0 Z " fill="#070807" transform="translate(232,50)"/>
<path d="M0 0 C2.63188609 1.01226388 3.75611827 1.6956577 5.4375 3.9375 C6.89320812 7.2241212 7.82011635 10.32192248 8.43728638 13.85751343 C8.60831879 14.82189835 8.7793512 15.78628326 8.95556641 16.77989197 C9.13539062 17.8262532 9.31521484 18.87261444 9.50048828 19.95068359 C9.69585175 21.06183029 9.89121521 22.17297699 10.09249878 23.3177948 C10.73648384 26.98956363 11.3724163 30.66267337 12.0078125 34.3359375 C12.45304995 36.89040422 12.89860081 39.44481634 13.3444519 41.99917603 C14.27766752 47.3533252 15.20696609 52.70813315 16.13330078 58.06347656 C17.20230886 64.24319772 18.27953574 70.42144452 19.36101353 76.59899461 C20.4032803 82.55411092 21.43888192 88.51036416 22.47173691 94.46712112 C22.9109409 96.99595349 23.35192048 99.52447813 23.79471207 102.05268478 C24.41328849 105.58933694 25.0242714 109.1272204 25.63330078 112.66552734 C25.81717346 113.70784012 26.00104614 114.75015289 26.19049072 115.8240509 C27.06069977 120.92780605 27.75516172 125.75739586 27.4375 130.9375 C26.4375 131.9375 26.4375 131.9375 24.37109375 132.03515625 C23.13552734 132.01775391 23.13552734 132.01775391 21.875 132 C21.04871094 131.99097656 20.22242188 131.98195312 19.37109375 131.97265625 C18.73300781 131.96105469 18.09492187 131.94945312 17.4375 131.9375 C15.98394048 126.36390311 14.80757031 120.81355644 13.83349609 115.13818359 C13.68690048 114.2980925 13.54030487 113.4580014 13.38926697 112.592453 C12.91004089 109.8408119 12.43524997 107.08842953 11.9609375 104.3359375 C11.62760939 102.41116339 11.29416227 100.48640988 10.96060181 98.56167603 C10.26429623 94.53919509 9.57036111 90.51631362 8.87792969 86.49316406 C7.99121473 81.34312606 7.09715552 76.19439332 6.20114708 71.04596519 C5.51136738 67.07627732 4.82620408 63.10580295 4.14235306 59.13508987 C3.81461684 57.23624882 3.48528358 55.33768269 3.15430832 53.43940353 C2.69230941 50.78641265 2.23672193 48.13239589 1.78271484 45.47802734 C1.64559586 44.69865311 1.50847687 43.91927887 1.36720276 43.11628723 C0.67126477 39.00394189 0.29466562 35.12729127 0.4375 30.9375 C-0.2225 30.9375 -0.8825 30.9375 -1.5625 30.9375 C-1.59335693 31.56881836 -1.62421387 32.20013672 -1.65600586 32.85058594 C-2.32420476 43.10517628 -4.25819894 53.09961194 -6.125 63.1875 C-6.45820648 65.01162308 -6.7908928 66.83584125 -7.12304688 68.66015625 C-7.93020872 73.08705604 -8.74438646 77.51261163 -9.5625 81.9375 C-8.93601562 81.91429687 -8.30953125 81.89109375 -7.6640625 81.8671875 C-6.84679687 81.84914063 -6.02953125 81.83109375 -5.1875 81.8125 C-4.37539063 81.78929687 -3.56328125 81.76609375 -2.7265625 81.7421875 C-0.5625 81.9375 -0.5625 81.9375 1.4375 83.9375 C5.42928645 99.9539271 5.42928645 99.9539271 2.4375 105.9375 C-2.8425 105.9375 -8.1225 105.9375 -13.5625 105.9375 C-13.8925 108.2475 -14.2225 110.5575 -14.5625 112.9375 C-15.03491793 115.87990931 -15.5482392 118.8146401 -16.0625 121.75 C-16.19269531 122.51248047 -16.32289062 123.27496094 -16.45703125 124.06054688 C-17.44461097 129.70172194 -17.44461097 129.70172194 -18.5625 131.9375 C-20.04156892 131.96439216 -21.52077483 131.98384621 -23 132 C-23.82371094 132.01160156 -24.64742187 132.02320313 -25.49609375 132.03515625 C-27.5625 131.9375 -27.5625 131.9375 -28.5625 130.9375 C-28.88255311 124.49917316 -27.98871037 118.50995447 -26.8659668 112.18212891 C-26.68546783 111.13388443 -26.50496887 110.08563995 -26.31900024 109.00563049 C-25.72331781 105.55723237 -25.11783188 102.11064134 -24.51171875 98.6640625 C-24.09250593 96.25571795 -23.6737146 93.84730001 -23.25532532 91.43881226 C-22.37778156 86.3962612 -21.49542979 81.35458177 -20.60961914 76.31347656 C-19.47781894 69.87044485 -18.35751402 63.42547866 -17.24077129 56.97982216 C-16.37790226 52.00662153 -15.50913419 47.03446529 -14.63858986 42.062603 C-14.223417 39.68759057 -13.81000072 37.31227036 -13.3984127 34.93663406 C-12.82062005 31.60723631 -12.23493508 28.27931821 -11.6472168 24.95166016 C-11.48033859 23.98095078 -11.31346039 23.01024139 -11.14152527 22.01011658 C-8.38318878 6.54715392 -8.38318878 6.54715392 -4.6875 1.25 C-2.5625 -0.0625 -2.5625 -0.0625 0 0 Z " fill="#080808" transform="translate(30.5625,56.0625)"/>
<path d="M0 0 C2.475 0.495 2.475 0.495 5 1 C5.34980257 7.43895834 5.25690573 12.33057151 2 18 C1.01 18.33 0.02 18.66 -1 19 C-0.80664062 19.52207031 -0.61328125 20.04414062 -0.4140625 20.58203125 C6.37272026 39.76645182 7.13092823 64.0982766 -1.47045898 82.81616211 C-4.32439205 88.72045279 -6.98948313 92.99474157 -13 96 C-16.02986784 96.4932343 -18.11543571 96.51774713 -20.80859375 94.94140625 C-29.01727019 88.4274243 -30.58343174 80.30334968 -32.2890625 70.390625 C-32.79817328 67.15670873 -32.79817328 67.15670873 -34.02563477 65.10986328 C-35.95178719 60.93902659 -35.33457484 56.14206363 -35.3125 51.625 C-35.31121094 50.55185547 -35.30992187 49.47871094 -35.30859375 48.37304688 C-35.21052721 40.2384276 -34.31595548 32.83013518 -32 25 C-32.63421875 24.72027344 -33.2684375 24.44054687 -33.921875 24.15234375 C-36 23 -36 23 -37.25 20.5625 C-38.27705132 15.68400622 -38.15904614 10.96577389 -38 6 C-35.609375 5.87109375 -35.609375 5.87109375 -33 6 C-29.9059467 9.64656282 -29.45742854 13.33422887 -29 18 C-28.59007812 17.37351562 -28.18015625 16.74703125 -27.7578125 16.1015625 C-27.21898437 15.28429687 -26.68015625 14.46703125 -26.125 13.625 C-25.59132812 12.81289062 -25.05765625 12.00078125 -24.5078125 11.1640625 C-21.76812641 7.23197418 -21.76812641 7.23197418 -19.046875 6.41015625 C-12.9768473 5.49139355 -12.9768473 5.49139355 -10.109375 6.984375 C-7.95081616 8.76570996 -6.25747769 10.48504462 -5 13 C-4.80664062 12.31292969 -4.61328125 11.62585938 -4.4140625 10.91796875 C-4.15367187 10.01691406 -3.89328125 9.11585937 -3.625 8.1875 C-3.36976563 7.29417969 -3.11453125 6.40085937 -2.8515625 5.48046875 C-2 3 -2 3 0 0 Z " fill="#D6E6AF" transform="translate(241,76)"/>
<path d="M0 0 C3.1207799 1.48096123 6.06841275 3.17590127 9 5 C9.02724423 7.83339965 9.04695589 10.66653117 9.0625 13.5 C9.07087891 14.29148437 9.07925781 15.08296875 9.08789062 15.8984375 C9.10891185 21.02761717 8.73937287 25.92336106 8 31 C6.989375 30.360625 5.97875 29.72125 4.9375 29.0625 C1.24780076 26.93151044 -1.77860255 26.34460387 -6 26 C-8.8787544 32.13903048 -8.73702867 38.35170061 -8 45 C-5.96037178 50.42777096 -2.09105927 54.00872266 2 58 C14.13749798 72.21282147 13.92963978 88.09152252 13 106 C11.93993014 115.95582278 8.79079616 125.40778786 1 132 C-2.77266505 133.25755502 -6.0997326 133.74951758 -10 133 C-12.9740646 131.32775015 -15.48304889 129.2937182 -18 127 C-18.52456787 126.55261475 -19.04913574 126.10522949 -19.58959961 125.64428711 C-22.06102604 122.76302399 -21.34644618 118.98953972 -21.25 115.375 C-21.23904297 114.56627441 -21.22808594 113.75754883 -21.21679688 112.92431641 C-21.11748946 107.56495436 -20.78615783 102.30656534 -20 97 C-18.88625 98.1446875 -18.88625 98.1446875 -17.75 99.3125 C-16.8425 100.199375 -15.935 101.08625 -15 102 C-14.4225 102.598125 -13.845 103.19625 -13.25 103.8125 C-9.75743164 105.65579997 -5.81948066 106.06917322 -2 105 C1.77313652 100.39120237 1.55354305 95.88400685 1.41796875 90.1640625 C0.81941904 85.63298524 -0.80511529 83.15987227 -4 80 C-5.2375 78.7315625 -5.2375 78.7315625 -6.5 77.4375 C-7.325 76.633125 -8.15 75.82875 -9 75 C-18.59420289 64.92608696 -20.1800009 53.73840004 -20.1875 40.375 C-20.19974609 39.24964844 -20.21199219 38.12429687 -20.22460938 36.96484375 C-20.24563026 24.84279865 -19.13126578 11.73779096 -10.484375 2.35546875 C-7.08285351 -0.17776963 -4.09464418 -0.72258427 0 0 Z " fill="#050505" transform="translate(175,57)"/>
<path d="M0 0 C3.96 0 7.92 0 12 0 C12 43.23 12 86.46 12 131 C8.04 131 4.08 131 0 131 C0 87.77 0 44.54 0 0 Z " fill="#111111" transform="translate(132,58)"/>
<path d="M0 0 C2.475 0.495 2.475 0.495 5 1 C5.34980257 7.43895834 5.25690573 12.33057151 2 18 C1.01 18.33 0.02 18.66 -1 19 C-0.80664062 19.52207031 -0.61328125 20.04414062 -0.4140625 20.58203125 C3.18219784 30.74769786 4.30427468 40.43791436 4.125 51.1875 C4.11597656 52.23486328 4.10695312 53.28222656 4.09765625 54.36132812 C4.07440075 56.90780514 4.04172569 59.45377031 4 62 C3.67 62 3.34 62 3 62 C2.34 56.06 1.68 50.12 1 44 C-0.98 44 -2.96 44 -5 44 C-5 45.32 -5 46.64 -5 48 C-3.515 47.505 -3.515 47.505 -2 47 C-2.50797009 51.3177458 -3.19682779 55.03302114 -5 59 C-7.44839588 55.32740617 -9 52.45351799 -9 48 C-9.66 48 -10.32 48 -11 48 C-10.79503906 48.67546875 -10.59007812 49.3509375 -10.37890625 50.046875 C-10.10949219 50.93890625 -9.84007812 51.8309375 -9.5625 52.75 C-9.29566406 53.63171875 -9.02882812 54.5134375 -8.75390625 55.421875 C-8.11531506 57.60565835 -7.53224167 59.78835498 -7 62 C-6.01 62 -5.02 62 -4 62 C-4.39365105 65.31564839 -4.81919136 68.62649132 -5.25 71.9375 C-5.41435547 73.32678711 -5.41435547 73.32678711 -5.58203125 74.74414062 C-6.38002386 80.72908522 -7.40329516 86.98926217 -11 92 C-13.13378906 92.74194336 -13.13378906 92.74194336 -15 93 C-17.11248018 88.77503965 -17.41787082 84.74529238 -17.75390625 80.109375 C-17.77703502 78.01616395 -17.77703502 78.01616395 -19 77 C-19.04080783 75.00041636 -19.04254356 72.99954746 -19 71 C-19.928125 71 -20.85625 71 -21.8125 71 C-25 70 -25 70 -26.875 66.6875 C-28.96201984 59.72660151 -29.28173718 52.0355289 -26.3125 45.3125 C-24.73770912 42.58624913 -24.32006969 42.11638898 -21.25 41 C-20.5075 41 -19.765 41 -19 41 C-18.34 43.31 -17.68 45.62 -17 48 C-16.34 48 -15.68 48 -15 48 C-15 47.34 -15 46.68 -15 46 C-13.02 45.505 -13.02 45.505 -11 45 C-10.67 43.35 -10.34 41.7 -10 40 C-10.99 40 -11.98 40 -13 40 C-12.625 38.0625 -12.625 38.0625 -12 36 C-11.01 35.505 -11.01 35.505 -10 35 C-10 33.35 -10 31.7 -10 30 C-13.22404978 31.66954819 -13.22404978 31.66954819 -13.6875 34.625 C-13.790625 35.40875 -13.89375 36.1925 -14 37 C-15.32 36.01 -16.64 35.02 -18 34 C-20.7839183 35.39195915 -20.97898997 37.15575779 -22 40 C-22.66 40 -23.32 40 -24 40 C-24 38.02 -24 36.04 -24 34 C-23.01 34 -22.02 34 -21 34 C-20.814375 32.6078125 -20.814375 32.6078125 -20.625 31.1875 C-20 28 -20 28 -18 25 C-17.01 25.33 -16.02 25.66 -15 26 C-15 24.02 -15 22.04 -15 20 C-15.66 19.67 -16.32 19.34 -17 19 C-17 18.01 -17 17.02 -17 16 C-15.35 15.67 -13.7 15.34 -12 15 C-11.34 12.69 -10.68 10.38 -10 8 C-8.35 9.65 -6.7 11.3 -5 13 C-4.80664062 12.31292969 -4.61328125 11.62585938 -4.4140625 10.91796875 C-4.15367187 10.01691406 -3.89328125 9.11585937 -3.625 8.1875 C-3.36976563 7.29417969 -3.11453125 6.40085937 -2.8515625 5.48046875 C-2 3 -2 3 0 0 Z " fill="#64AB4D" transform="translate(241,76)"/>
<path d="M0 0 C7.92 0 15.84 0 24 0 C22.87755366 6.73467804 22.87755366 6.73467804 21.80078125 9.96875 C21.56407715 10.69360596 21.32737305 11.41846191 21.08349609 12.1652832 C20.82906738 12.93573975 20.57463867 13.70619629 20.3125 14.5 C17.97677791 21.72396335 15.84907939 28.98156182 13.875 36.3125 C13.62637207 37.23571045 13.37774414 38.1589209 13.12158203 39.11010742 C12.63969044 40.90271212 12.15823 42.69543279 11.67724609 44.48828125 C10.7026447 48.10280869 9.70192249 51.70891976 8.6875 55.3125 C8.38199219 56.40175781 8.07648438 57.49101563 7.76171875 58.61328125 C7 61 7 61 6 62 C5.68980954 67.0896557 6.40559842 70.95510796 8.0625 75.75 C10.50076836 83.08782432 12.47495213 90.50630868 14.375 98 C16.57916455 106.65323156 18.89247663 115.2532189 21.4375 123.8125 C25.5944862 137.79389781 29.29486217 151.89348228 33 166 C32.34 166 31.68 166 31 166 C30.75354736 165.14994385 30.50709473 164.2998877 30.25317383 163.42407227 C24.28575509 142.82900768 24.28575509 142.82900768 18.25 122.25390625 C17.23989485 118.82712452 16.24393164 115.39635025 15.25 111.96484375 C14.9401416 110.8967749 14.6302832 109.82870605 14.31103516 108.72827148 C13.70506857 106.63836639 13.10048549 104.54805945 12.49755859 102.45727539 C11.00722414 97.32166342 9.43653492 92.23183473 7.72314453 87.16650391 C6.48170619 83.44721834 5.34766748 79.7013953 4.25 75.9375 C4.01667969 75.18662109 3.78335938 74.43574219 3.54296875 73.66210938 C1.04168513 64.99748319 3.17830608 57.69057663 5.5625 49.25 C5.81918457 48.32493652 6.07586914 47.39987305 6.34033203 46.44677734 C9.82386636 33.94510223 13.41307546 21.47230108 17 9 C12.05 9 7.1 9 2 9 C1.7525 10.134375 1.505 11.26875 1.25 12.4375 C-3.84315589 35.26639734 -3.84315589 35.26639734 -7 45 C-7.66 44.67 -8.32 44.34 -9 44 C-9.74869187 41.54289139 -10.37587308 39.14036339 -10.9453125 36.640625 C-11.2074202 35.52853668 -11.2074202 35.52853668 -11.474823 34.39398193 C-11.8435087 32.82120662 -12.20806693 31.247459 -12.56884766 29.67285156 C-13.12006217 27.27151143 -13.68588976 24.87397701 -14.25390625 22.4765625 C-14.6102565 20.94812192 -14.96575273 19.41948192 -15.3203125 17.890625 C-15.48902863 17.17585999 -15.65774475 16.46109497 -15.83157349 15.72467041 C-16.65766188 12.08572477 -17.19534485 8.73426659 -17 5 C-14.30685546 9.03971682 -13.25055828 13.24812214 -11.875 17.875 C-11.59785156 18.77347656 -11.32070312 19.67195313 -11.03515625 20.59765625 C-10.77347656 21.47035156 -10.51179688 22.34304687 -10.2421875 23.2421875 C-10.0035498 24.0347998 -9.76491211 24.82741211 -9.51904297 25.64404297 C-8.96413417 28.16279645 -8.90937572 30.42889227 -9 33 C-8.34 33 -7.68 33 -7 33 C-6.8865625 31.73929688 -6.773125 30.47859375 -6.65625 29.1796875 C-6.04793439 23.71127291 -4.81862519 18.45978078 -3.5 13.125 C-3.27441406 12.18914062 -3.04882812 11.25328125 -2.81640625 10.2890625 C-1.97214097 6.81208834 -1.13197491 3.39592474 0 0 Z " fill="#DA2B32" transform="translate(102,58)"/>
<path d="M0 0 C2.95103712 2.95103712 3.53158864 6.64521675 4.64453125 10.56640625 C4.89619553 11.43329575 5.1478598 12.30018524 5.40715027 13.19334412 C6.21506173 15.98133374 7.01395679 18.77181429 7.8125 21.5625 C8.33858702 23.38494058 8.86527349 25.20720823 9.39257812 27.02929688 C10.43459085 30.6321433 11.47367194 34.23581588 12.51074219 37.84008789 C14.64170919 45.23618604 16.81771128 52.61891166 19 60 C19.53959351 61.82615845 19.53959351 61.82615845 20.09008789 63.68920898 C21.10052196 67.10566377 22.11245742 70.52166959 23.125 73.9375 C23.45886719 75.06478516 23.79273437 76.19207031 24.13671875 77.35351562 C24.46542969 78.46275391 24.79414062 79.57199219 25.1328125 80.71484375 C25.44686035 81.77598389 25.7609082 82.83712402 26.08447266 83.93041992 C26.68092276 85.93019784 27.28442013 87.92789163 27.89599609 89.9230957 C28.16750488 90.80956787 28.43901367 91.69604004 28.71875 92.609375 C28.95787109 93.38120117 29.19699219 94.15302734 29.44335938 94.94824219 C31.98203602 104.30571523 27.60258424 115.004111 25 124 C24.54355054 125.60656636 24.08787776 127.21335351 23.6328125 128.8203125 C20.86036346 138.58244413 18.03374859 148.31534103 15 158 C19.95 157.67 24.9 157.34 30 157 C30.23074219 155.97003906 30.46148437 154.94007813 30.69921875 153.87890625 C32.48057896 146.05000422 34.39529614 138.27685859 36.625 130.5625 C36.83084717 129.83554932 37.03669434 129.10859863 37.2487793 128.35961914 C38.7588023 123.2411977 38.7588023 123.2411977 41 121 C42.12839099 125.53311813 43.24909011 130.06804715 44.36303711 134.60473633 C44.74216918 136.1443058 45.12331274 137.68338151 45.5065918 139.22192383 C49.42344892 154.95573974 49.42344892 154.95573974 50 163 C47.66966455 160.66966455 47.36241899 159.2866487 46.52734375 156.1328125 C46.26759766 155.16472656 46.00785156 154.19664062 45.74023438 153.19921875 C45.47533203 152.18472656 45.21042969 151.17023438 44.9375 150.125 C44.66873047 149.11824219 44.39996094 148.11148438 44.12304688 147.07421875 C43.0532433 143.05645271 42.00040309 139.03564367 41 135 C38.57139745 141.75385819 36.84752998 148.5572391 35.3125 155.5625 C34.1678125 160.7290625 34.1678125 160.7290625 33 166 C25.08 166 17.16 166 9 166 C10.19562225 159.4240776 11.30880572 153.3098666 13.25 147 C13.56988892 145.93386475 13.56988892 145.93386475 13.89624023 144.84619141 C15.31555991 140.14715463 16.79840958 135.46891697 18.29174805 130.79296875 C19.54326526 126.8667646 20.77386905 122.93419209 22 119 C22.22139648 118.30036133 22.44279297 117.60072266 22.67089844 116.87988281 C27.18777028 102.42450098 25.08737252 92.61634499 20.6796875 78.5234375 C18.92282744 72.850709 17.41126092 67.12683453 15.9375 61.375 C14.2131455 54.67397142 12.48032588 47.97862063 10.625 41.3125 C10.43389648 40.62510742 10.24279297 39.93771484 10.04589844 39.22949219 C8.69663707 34.41131644 7.30685751 29.60540866 5.91015625 24.80078125 C5.54390137 23.53516357 5.17764648 22.2695459 4.80029297 20.96557617 C4.06840455 18.43961377 3.33187982 15.9149893 2.59033203 13.3918457 C2.25501465 12.23386475 1.91969727 11.07588379 1.57421875 9.8828125 C1.27088623 8.84527832 0.96755371 7.80774414 0.6550293 6.73876953 C0 4 0 4 0 0 Z " fill="#D9242B" transform="translate(54,22)"/>
<path d="M0 0 C0.66 0 1.32 0 2 0 C2.268125 0.969375 2.53625 1.93875 2.8125 2.9375 C3.204375 3.948125 3.59625 4.95875 4 6 C4.99 6.33 5.98 6.66 7 7 C7 8.98 7 10.96 7 13 C6.01 13 5.02 13 4 13 C3.67 14.65 3.34 16.3 3 18 C2.01 18 1.02 18 0 18 C0.33 18.66 0.66 19.32 1 20 C3.02463255 20.65213292 3.02463255 20.65213292 5 21 C5.08131463 22.43655854 5.13933559 23.8744483 5.1875 25.3125 C5.23970703 26.51326172 5.23970703 26.51326172 5.29296875 27.73828125 C4.93376512 30.51133328 4.17064 31.30468263 2 33 C-0.44026984 33.97610793 -1.68524321 34.0786892 -4.25 33.4375 C-7.59890696 32.90471935 -9.84391484 33.61391361 -13.03515625 34.625 C-15.4033959 35.07699007 -16.76409755 34.8925016 -19 34 C-21.67927341 29.98108988 -21.15601248 27.75838077 -21 23 C-19.0625 22.4375 -19.0625 22.4375 -17 22 C-16.67 22.33 -16.34 22.66 -16 23 C-15.67 22.01 -15.34 21.02 -15 20 C-16.32 19.67 -17.64 19.34 -19 19 C-19 17.68 -19 16.36 -19 15 C-19.99 15 -20.98 15 -22 15 C-22.33 13.02 -22.66 11.04 -23 9 C-21.68 8.67 -20.36 8.34 -19 8 C-18.67 6.35 -18.34 4.7 -18 3 C-17.01 3 -16.02 3 -15 3 C-14.67 4.32 -14.34 5.64 -14 7 C-13.34 6.67 -12.68 6.34 -12 6 C-10.33555539 5.9044069 -8.66718037 5.87015355 -7 5.875 C-6.113125 5.87242188 -5.22625 5.86984375 -4.3125 5.8671875 C-2 6 -2 6 0 7 C0 4.69 0 2.38 0 0 Z " fill="#71B22D" transform="translate(232,50)"/>
<path d="M0 0 C2.00720923 0.28674418 4.0085944 0.61866701 6 1 C10.47767704 16.95172445 7.79613162 30.80083376 0.6953125 45.37109375 C-1.57016139 48.88414427 -4.26892058 51.13446029 -8 53 C-11.01456855 53.49074372 -13.10884077 53.50428449 -15.80859375 51.9765625 C-20.71227812 48.15907058 -22.93321041 43.77674108 -25 38 C-21.57440916 39.20358597 -19.46741391 40.35892646 -17 43 C-18.02647073 36.6520889 -19.59712671 31.07549188 -22.29296875 25.2265625 C-23 23 -23 23 -22 19 C-21.34 21.64 -20.68 24.28 -20 27 C-18.02 27.33 -16.04 27.66 -14 28 C-11.72005699 34.83982904 -10.92951016 41.87045933 -10 49 C-8.04094165 48.74258933 -8.04094165 48.74258933 -6 48 C-2.95435121 42.02584277 -2.3163226 35.90122977 -1.47265625 29.30078125 C-0.95676816 25.69809168 -0.1479972 22.44399161 1 19 C0.01 19 -0.98 19 -2 19 C-3.86540627 14.29593201 -5.36843005 10.05255964 -6 5 C-5.34 5 -4.68 5 -4 5 C-3.01 7.64 -2.02 10.28 -1 13 C1.62386487 9.93882432 2 9.26826873 2 5 C1.34 5 0.68 5 0 5 C-0.5625 3.0625 -0.5625 3.0625 -1 1 C-0.67 0.67 -0.34 0.34 0 0 Z " fill="#B4D078" transform="translate(236,119)"/>
<path d="M0 0 C2.475 0.495 2.475 0.495 5 1 C5.34637076 7.37578767 5.41725311 12.46169323 2 18 C-0.6875 18.9375 -0.6875 18.9375 -3 19 C-2.7525 19.7734375 -2.7525 19.7734375 -2.5 20.5625 C-1.84951 23.73363876 -1.9379266 26.77218334 -2 30 C-2.66 30 -3.32 30 -4 30 C-4 33.63 -4 37.26 -4 41 C-5.32 40.67 -6.64 40.34 -8 40 C-8.66 41.32 -9.32 42.64 -10 44 C-10 42.68 -10 41.36 -10 40 C-10.99 40 -11.98 40 -13 40 C-12.625 38.0625 -12.625 38.0625 -12 36 C-11.01 35.505 -11.01 35.505 -10 35 C-10 33.35 -10 31.7 -10 30 C-13.22404978 31.66954819 -13.22404978 31.66954819 -13.6875 34.625 C-13.790625 35.40875 -13.89375 36.1925 -14 37 C-15.32 36.01 -16.64 35.02 -18 34 C-20.7839183 35.39195915 -20.97898997 37.15575779 -22 40 C-22.66 40 -23.32 40 -24 40 C-24 38.02 -24 36.04 -24 34 C-23.01 34 -22.02 34 -21 34 C-20.87625 33.071875 -20.7525 32.14375 -20.625 31.1875 C-20 28 -20 28 -18 25 C-17.01 25.33 -16.02 25.66 -15 26 C-15 24.02 -15 22.04 -15 20 C-15.66 19.67 -16.32 19.34 -17 19 C-17 18.01 -17 17.02 -17 16 C-15.35 15.67 -13.7 15.34 -12 15 C-11.34 12.69 -10.68 10.38 -10 8 C-8.35 9.65 -6.7 11.3 -5 13 C-4.80664062 12.31292969 -4.61328125 11.62585938 -4.4140625 10.91796875 C-4.15367187 10.01691406 -3.89328125 9.11585937 -3.625 8.1875 C-3.36976563 7.29417969 -3.11453125 6.40085937 -2.8515625 5.48046875 C-2 3 -2 3 0 0 Z " fill="#66AC4C" transform="translate(241,76)"/>
<path d="M0 0 C2.95103712 2.95103712 3.53158864 6.64521675 4.64453125 10.56640625 C4.89619553 11.43329575 5.1478598 12.30018524 5.40715027 13.19334412 C6.21506173 15.98133374 7.01395679 18.77181429 7.8125 21.5625 C8.33858702 23.38494058 8.86527349 25.20720823 9.39257812 27.02929688 C10.43459085 30.6321433 11.47367194 34.23581588 12.51074219 37.84008789 C14.64170919 45.23618604 16.81771128 52.61891166 19 60 C19.53959351 61.82615845 19.53959351 61.82615845 20.09008789 63.68920898 C21.10052196 67.10566377 22.11245742 70.52166959 23.125 73.9375 C23.45886719 75.06478516 23.79273437 76.19207031 24.13671875 77.35351562 C24.46542969 78.46275391 24.79414062 79.57199219 25.1328125 80.71484375 C25.44686035 81.77598389 25.7609082 82.83712402 26.08447266 83.93041992 C26.68092276 85.93019784 27.28442013 87.92789163 27.89599609 89.9230957 C28.16750488 90.80956787 28.43901367 91.69604004 28.71875 92.609375 C28.95787109 93.38120117 29.19699219 94.15302734 29.44335938 94.94824219 C31.98334437 104.31053777 27.59622755 114.99910815 25 124 C24.11918004 127.14421878 23.24722762 130.29088815 22.375 133.4375 C22.14554688 134.26443359 21.91609375 135.09136719 21.6796875 135.94335938 C21.11955405 137.96217367 20.55974357 139.98107757 20 142 C19.34 141.01 18.68 140.02 18 139 C17.34 139.33 16.68 139.66 16 140 C17.44633059 133.92985553 18.9782127 127.91631719 20.859375 121.96484375 C21.17003906 120.97033203 21.48070313 119.97582031 21.80078125 118.95117188 C22.43613665 116.93398384 23.08470599 114.92091258 23.74609375 112.91210938 C26.95942999 102.465377 25.67584966 93.96035873 22.3125 83.75 C19.97979461 76.33773129 17.86626222 68.9026261 15.9375 61.375 C14.2131455 54.67397142 12.48032588 47.97862063 10.625 41.3125 C10.43389648 40.62510742 10.24279297 39.93771484 10.04589844 39.22949219 C8.69663707 34.41131644 7.30685751 29.60540866 5.91015625 24.80078125 C5.54390137 23.53516357 5.17764648 22.2695459 4.80029297 20.96557617 C4.06840455 18.43961377 3.33187982 15.9149893 2.59033203 13.3918457 C2.25501465 12.23386475 1.91969727 11.07588379 1.57421875 9.8828125 C1.27088623 8.84527832 0.96755371 7.80774414 0.6550293 6.73876953 C0 4 0 4 0 0 Z " fill="#DC383E" transform="translate(54,22)"/>
<path d="M0 0 C0.66 0.33 1.32 0.66 2 1 C2.36923077 6.41538462 2.36923077 6.41538462 0.5 9.375 C0.005 9.91125 -0.49 10.4475 -1 11 C-0.34 11.66 0.32 12.32 1 13 C1.99 11.02 2.98 9.04 4 7 C4.99 7 5.98 7 7 7 C8.19937786 13.37259801 8.06475363 17.23826317 5 23 C4.34 23 3.68 23 3 23 C3 24.65 3 26.3 3 28 C3.66 28 4.32 28 5 28 C5.33 27.01 5.66 26.02 6 25 C8.60242414 23.35179805 9.86248779 23 13 23 C14.32 25.31 15.64 27.62 17 30 C16.34 30.66 15.68 31.32 15 32 C14.29875 31.835 13.5975 31.67 12.875 31.5 C9.43098435 30.90104076 7.24676071 31.58518473 3.96484375 32.625 C1.5966041 33.07699007 0.23590245 32.8925016 -2 32 C-4.67927341 27.98108988 -4.15601248 25.75838077 -4 21 C-2.0625 20.4375 -2.0625 20.4375 0 20 C0.33 20.33 0.66 20.66 1 21 C1.33 20.01 1.66 19.02 2 18 C0.68 17.67 -0.64 17.34 -2 17 C-2 15.68 -2 14.36 -2 13 C-2.99 13 -3.98 13 -5 13 C-5.33 11.02 -5.66 9.04 -6 7 C-4.68 6.67 -3.36 6.34 -2 6 C-1.855625 5.195625 -1.71125 4.39125 -1.5625 3.5625 C-1 1 -1 1 0 0 Z " fill="#7FB83B" transform="translate(215,52)"/>
<path d="M0 0 C2.375 0.25 2.375 0.25 5 1 C5.309375 1.66 5.61875 2.32 5.9375 3 C6.288125 3.66 6.63875 4.32 7 5 C10.05908413 5.81584568 10.05908413 5.81584568 13 6 C13 7.32 13 8.64 13 10 C12.34 10 11.68 10 11 10 C11 14.62 11 19.24 11 24 C2.6015625 24.29296875 2.6015625 24.29296875 0 24 C-2.0331579 20.95026315 -2.2548508 20.31043132 -2.265625 16.875 C-2.26820313 16.08609375 -2.27078125 15.2971875 -2.2734375 14.484375 C-2.26570312 13.66453125 -2.25796875 12.8446875 -2.25 12 C-2.25773438 11.18015625 -2.26546875 10.3603125 -2.2734375 9.515625 C-2.27085937 8.72671875 -2.26828125 7.9378125 -2.265625 7.125 C-2.26336914 6.40570313 -2.26111328 5.68640625 -2.25878906 4.9453125 C-2 3 -2 3 0 0 Z " fill="#E1F1DC" transform="translate(147,201)"/>
<path d="M0 0 C2.390625 -0.12890625 2.390625 -0.12890625 5 0 C7.45212452 2.8900039 7.98909757 4.91959455 8.5 8.6875 C8.665 9.780625 8.83 10.87375 9 12 C9.99 12.66 10.98 13.32 12 14 C11.79503906 14.680625 11.59007812 15.36125 11.37890625 16.0625 C9.28464078 23.59784754 8.52985709 30.66562378 8.2109375 38.43359375 C8.03501538 41.40798065 7.67989009 44.10768068 7 47 C6.67 47 6.34 47 6 47 C6 45.35 6 43.7 6 42 C5.34 42 4.68 42 4 42 C4 46.95 4 51.9 4 57 C3.67 57 3.34 57 3 57 C2.38083142 31.23623663 2.38083142 31.23623663 6 19 C5.36578125 18.72027344 4.7315625 18.44054687 4.078125 18.15234375 C2 17 2 17 0.75 14.5625 C-0.27705132 9.68400622 -0.15904614 4.96577389 0 0 Z " fill="#BCD57A" transform="translate(203,82)"/>
<path d="M0 0 C0.66 1.32 1.32 2.64 2 4 C2.99 4 3.98 4 5 4 C5.33 3.01 5.66 2.02 6 1 C9 3 9 3 9.51171875 4.9453125 C9.67447917 6.96354167 9.83723958 8.98177083 10 11 C10.66 11 11.32 11 12 11 C12.33 10.01 12.66 9.02 13 8 C13.99 8.33 14.98 8.66 16 9 C15.74253792 11.83511188 15.46943783 14.66730179 15.1875 17.5 C15.11724609 18.29148438 15.04699219 19.08296875 14.97460938 19.8984375 C14.41277936 25.38189844 13.12951328 29.91250527 11 35 C10.67 34.34 10.34 33.68 10 33 C9.34 33 8.68 33 8 33 C9 31 10 29 11 27 C9.68 27 8.36 27 7 27 C5.02031227 22.05078067 4.91275615 18.23463076 5 13 C4.18119113 10.83647603 4.18119113 10.83647603 2.0625 10.125 C-0.4635793 8.74713856 -1.09845883 7.70462351 -2 5 C-1 2 -1 2 0 0 Z " fill="#69AE4E" transform="translate(220,132)"/>
<path d="M0 0 C0.66 0 1.32 0 2 0 C5.9561772 10.68167843 7.31452854 20.82307688 7.125 32.1875 C7.11597656 33.23486328 7.10695312 34.28222656 7.09765625 35.36132812 C7.07440075 37.90780514 7.04172569 40.45377031 7 43 C6.67 43 6.34 43 6 43 C5.34 37.06 4.68 31.12 4 25 C2.02 25 0.04 25 -2 25 C-2 26.32 -2 27.64 -2 29 C-1.01 28.67 -0.02 28.34 1 28 C0.49202991 32.3177458 -0.19682779 36.03302114 -2 40 C-4.45391569 36.31912647 -4.22802759 33.55644412 -4.125 29.3125 C-4.11597656 28.61060547 -4.10695312 27.90871094 -4.09765625 27.18554688 C-4.07413704 25.45688475 -4.03826713 23.72839855 -4 22 C-3.01 22 -2.02 22 -1 22 C-1 18.37 -1 14.74 -1 11 C-0.34 11 0.32 11 1 11 C0.67 7.37 0.34 3.74 0 0 Z " fill="#27803D" transform="translate(238,95)"/>
<path d="M0 0 C1.32 0 2.64 0 4 0 C4.103125 0.639375 4.20625 1.27875 4.3125 1.9375 C4.6528125 2.9584375 4.6528125 2.9584375 5 4 C5.99 4.33 6.98 4.66 8 5 C7.67 6.32 7.34 7.64 7 9 C5.68 8.67 4.36 8.34 3 8 C2.95875 9.258125 2.9175 10.51625 2.875 11.8125 C2.85179687 12.52019531 2.82859375 13.22789063 2.8046875 13.95703125 C2.86745538 16.31359719 2.86745538 16.31359719 5 19 C6.32 19 7.64 19 9 19 C7.55007731 23.10811428 5.54592427 26.46855666 3 30 C2.67 30 2.34 30 2 30 C1.86722656 29.30132812 1.73445312 28.60265625 1.59765625 27.8828125 C1.42105469 26.97273438 1.24445313 26.06265625 1.0625 25.125 C0.88847656 24.22007813 0.71445313 23.31515625 0.53515625 22.3828125 C0.10036299 20.00043683 0.10036299 20.00043683 -1 18 C-3.52733235 17.34444881 -3.52733235 17.34444881 -6 17 C-6 19.64 -6 22.28 -6 25 C-6.33 24.34 -6.66 23.68 -7 23 C-7.66 23 -8.32 23 -9 23 C-7.67296379 14.44798884 -4.01880768 7.55406899 0 0 Z " fill="#0B0D07" transform="translate(209,65)"/>
<path d="M0 0 C2.46607421 2.46607421 2.71511239 4.13252565 3.55078125 7.50390625 C3.97617188 9.1902417 3.97617188 9.1902417 4.41015625 10.91064453 C4.70792969 12.11575684 5.00570312 13.32086914 5.3125 14.5625 C8.23255105 26.14133216 8.23255105 26.14133216 11.5 37.625 C17.10992943 56.29445341 22.15795975 75.11846272 27 94 C26.34 94 25.68 94 25 94 C24.75354736 93.14994385 24.50709473 92.2998877 24.25317383 91.42407227 C18.28575509 70.82900768 18.28575509 70.82900768 12.25 50.25390625 C11.23989485 46.82712452 10.24393164 43.39635025 9.25 39.96484375 C8.9401416 38.8967749 8.6302832 37.82870605 8.31103516 36.72827148 C7.70506857 34.63836639 7.10048549 32.54805945 6.49755859 30.45727539 C4.99150425 25.26749353 3.39148408 20.131494 1.65625 15.01416016 C0.73518098 12.1872184 0.00991675 9.32679796 -0.6875 6.4375 C-0.93886719 5.40496094 -1.19023438 4.37242187 -1.44921875 3.30859375 C-1.63097656 2.54675781 -1.81273438 1.78492188 -2 1 C-1.34 0.67 -0.68 0.34 0 0 Z " fill="#E2585D" transform="translate(108,130)"/>
<path d="M0 0 C2.00720923 0.28674418 4.0085944 0.61866701 6 1 C7.82161757 7.944917 9.98298779 16.46200871 6.984375 23.32421875 C6.49710938 24.15373047 6.49710938 24.15373047 6 25 C5.34 25 4.68 25 4 25 C3.67 25.99 3.34 26.98 3 28 C2.34 28 1.68 28 1 28 C1 25.03 1 22.06 1 19 C0.01 19 -0.98 19 -2 19 C-3.86540627 14.29593201 -5.36843005 10.05255964 -6 5 C-5.34 5 -4.68 5 -4 5 C-3.01 7.64 -2.02 10.28 -1 13 C1.62386487 9.93882432 2 9.26826873 2 5 C1.34 5 0.68 5 0 5 C-0.5625 3.0625 -0.5625 3.0625 -1 1 C-0.67 0.67 -0.34 0.34 0 0 Z " fill="#D8E7B1" transform="translate(236,119)"/>
<path d="M0 0 C0.66 0 1.32 0 2 0 C1.125 4.75 1.125 4.75 0 7 C0.6237206 9.08235826 0.6237206 9.08235826 2 11 C3.0209375 11.433125 3.0209375 11.433125 4.0625 11.875 C6 13 6 13 6.6875 15.5 C6.790625 16.655 6.89375 17.81 7 19 C7.18719241 20.79169883 7.37470811 22.5833639 7.5625 24.375 C7.71028211 25.91648108 7.85677897 27.45808846 8 29 C9.32 29 10.64 29 12 29 C10.5 32 10.5 32 9 35 C9.66 35 10.32 35 11 35 C10.67 36.32 10.34 37.64 10 39 C8.68 38.67 7.36 38.34 6 38 C5.80083984 36.50146484 5.80083984 36.50146484 5.59765625 34.97265625 C5.42105469 33.68230469 5.24445313 32.39195312 5.0625 31.0625 C4.88847656 29.77472656 4.71445313 28.48695313 4.53515625 27.16015625 C4.33837577 24.14533687 4.33837577 24.14533687 3 23 C2.95919217 21.00041636 2.95745644 18.99954746 3 17 C2.05125 16.938125 1.1025 16.87625 0.125 16.8125 C-3 16 -3 16 -4.375 13.75 C-4.98761011 11.05451551 -5.15730269 8.75279705 -5 6 C-4.34 6 -3.68 6 -3 6 C-2.67 5.01 -2.34 4.02 -2 3 C-1.34 3 -0.68 3 0 3 C0 2.01 0 1.02 0 0 Z " fill="#6AAF4B" transform="translate(219,130)"/>
<path d="M0 0 C0.93423645 3.01031744 1.04449911 3.86650268 0 7 C0.66 7 1.32 7 2 7 C1.31307194 13.60580134 -0.54743239 19.77344898 -2.4375 26.125 C-2.75009766 27.19621094 -3.06269531 28.26742187 -3.38476562 29.37109375 C-5.74235719 37.37593953 -5.74235719 37.37593953 -7.09350586 40.64868164 C-8.24769193 43.64247803 -8.19523708 46.11671276 -8.125 49.3125 C-8.10695313 50.38113281 -8.08890625 51.44976562 -8.0703125 52.55078125 C-8.04710938 53.35902344 -8.02390625 54.16726562 -8 55 C-10 54 -10 54 -11.1875 51.4375 C-12.92412083 44.09025803 -10.25725388 36.71244922 -8.25 29.625 C-7.85337158 28.19873291 -7.85337158 28.19873291 -7.44873047 26.74365234 C-6.90473532 24.78937176 -6.35834735 22.83575568 -5.80957031 20.8828125 C-5.03116808 18.11098695 -4.26012361 15.33724134 -3.4921875 12.5625 C-2.3328049 8.37368462 -1.16805843 4.18640412 0 0 Z " fill="#DB343A" transform="translate(116,77)"/>
<path d="M0 0 C2.44846112 0.37349407 3.68306184 0.63883791 5.34375 2.53125 C13 15.56756757 13 15.56756757 13 21 C12.01 21.33 11.02 21.66 10 22 C9.67 19.36 9.34 16.72 9 14 C7.68 14 6.36 14 5 14 C2.97944157 18.39251833 1.59104765 22.15340923 1 27 C-3.875 22.25 -3.875 22.25 -5 20 C-3.7625 19.5359375 -3.7625 19.5359375 -2.5 19.0625 C0.20593884 17.29781962 0.20593884 17.29781962 0.33203125 14.796875 C0.31408275 12.51382601 0.2143984 10.27262304 0 8 C-1.32 8 -2.64 8 -4 8 C-4 7.01 -4 6.02 -4 5 C-3.01 5 -2.02 5 -1 5 C-0.67 3.35 -0.34 1.7 0 0 Z " fill="#0A0E06" transform="translate(236,63)"/>
<path d="M0 0 C2.95103712 2.95103712 3.53158864 6.64521675 4.64453125 10.56640625 C4.89619553 11.43329575 5.1478598 12.30018524 5.40715027 13.19334412 C6.21506173 15.98133374 7.01395679 18.77181429 7.8125 21.5625 C8.33858702 23.38494058 8.86527349 25.20720823 9.39257812 27.02929688 C10.43288588 30.62630586 11.47037561 34.2241093 12.50585938 37.82250977 C15.15059665 47.00151098 17.81882587 56.1751161 20.6171875 65.30859375 C20.83117187 66.01177734 21.04515625 66.71496094 21.265625 67.43945312 C21.69022185 68.83164088 22.12033618 70.22215277 22.5546875 71.61132812 C24.11222718 76.77554563 24.11222718 76.77554563 23 79 C22.01 79.495 22.01 79.495 21 80 C20.83918945 79.37134033 20.67837891 78.74268066 20.51269531 78.0949707 C19.76166504 75.16664902 19.00584501 72.23958246 18.25 69.3125 C17.99734375 68.32443359 17.7446875 67.33636719 17.484375 66.31835938 C16.12396113 61.0637608 14.67193705 55.86015622 13.05078125 50.6796875 C10.79284245 43.4470415 8.85747047 36.1409422 6.9375 28.8125 C3.94517708 17.37248741 3.94517708 17.37248741 0.51782227 6.05737305 C0 4 0 4 0 0 Z " fill="#E04D53" transform="translate(54,22)"/>
<path d="M0 0 C2.31 0 4.62 0 7 0 C7.33 1.98 7.66 3.96 8 6 C8.66 6 9.32 6 10 6 C10.33 4.02 10.66 2.04 11 0 C11.66 0 12.32 0 13 0 C13 5.61 13 11.22 13 17 C12.01 17 11.02 17 10 17 C10 15.35 10 13.7 10 12 C9.34 12 8.68 12 8 12 C8 13.65 8 15.3 8 17 C7.01 17 6.02 17 5 17 C5 12.71 5 8.42 5 4 C4.34 4 3.68 4 3 4 C3 8.29 3 12.58 3 17 C2.34 17 1.68 17 1 17 C0.67 11.39 0.34 5.78 0 0 Z " fill="#AFAFAF" transform="translate(241,24)"/>
<path d="M0 0 C2.2109885 0.42793326 3.98119242 0.99059621 6 2 C6 3.98 6 5.96 6 8 C6.66 8 7.32 8 8 8 C8.33 7.01 8.66 6.02 9 5 C11.60242414 3.35179805 12.86248779 3 16 3 C17.32 5.31 18.64 7.62 20 10 C19.34 10.66 18.68 11.32 18 12 C17.29875 11.835 16.5975 11.67 15.875 11.5 C12.43098435 10.90104076 10.24676071 11.58518473 6.96484375 12.625 C4.5966041 13.07699007 3.23590245 12.8925016 1 12 C-1.69461986 7.95807022 -1.23200889 5.7948504 -1 1 C-0.67 0.67 -0.34 0.34 0 0 Z " fill="#76B631" transform="translate(212,72)"/>
<path d="M0 0 C0.03738281 0.73605469 0.07476562 1.47210938 0.11328125 2.23046875 C0.48197438 7.70303144 0.87421785 11.37927856 4 16 C4.1875 18.8125 4.1875 18.8125 4 21 C3.34 20.67 2.68 20.34 2 20 C2 19.34 2 18.68 2 18 C-1.0745356 18.7763932 -1.0745356 18.7763932 -3 21 C-3.66 21 -4.32 21 -5 21 C-5.33 21.66 -5.66 22.32 -6 23 C-6.66 23 -7.32 23 -8 23 C-8 21.35 -8 19.7 -8 18 C-7.34 17.67 -6.68 17.34 -6 17 C-3.74396038 11.98657863 -3.78497982 7.37550458 -4 2 C-4.99 2 -5.98 2 -7 2 C-7.66 4.31 -8.32 6.62 -9 9 C-10.32 8.01 -11.64 7.02 -13 6 C-9.04608494 0.06912741 -7.07897132 -0.71989539 0 0 Z " fill="#080C03" transform="translate(226,57)"/>
<path d="M0 0 C2.1199487 3.67638916 3.01419608 7.596129 3.98046875 11.6875 C4.15757889 12.42701904 4.33468903 13.16653809 4.51716614 13.9284668 C4.88864884 15.48782415 5.25746496 17.04781888 5.6237793 18.60839844 C6.18611753 20.99413483 6.76352102 23.37589599 7.34179688 25.7578125 C7.70144727 27.27582247 8.06020172 28.79404505 8.41796875 30.3125 C8.59184616 31.02301514 8.76572357 31.73353027 8.94487 32.46557617 C9.74251113 35.92765367 10.3297793 38.62594931 9 42 C6.06032543 32.72751586 3.44760472 23.41286282 1 14 C0.55011719 14.95132813 0.10023437 15.90265625 -0.36328125 16.8828125 C-1.9744009 19.95124564 -3.11022746 21.20634808 -6 23 C-5.30331252 18.32638819 -4.23505638 13.80538913 -3 9.25 C-2.82210937 8.57839844 -2.64421875 7.90679687 -2.4609375 7.21484375 C-1.1308171 2.2616342 -1.1308171 2.2616342 0 0 Z " fill="#DB3138" transform="translate(94,143)"/>
<path d="M0 0 C0.66 0 1.32 0 2 0 C2.33 1.65 2.66 3.3 3 5 C2.01 5.66 1.02 6.32 0 7 C-0.33 7.99 -0.66 8.98 -1 10 C-0.01 10 0.98 10 2 10 C2 11.65 2 13.3 2 15 C0.35 15.33 -1.3 15.66 -3 16 C-3 16.66 -3 17.32 -3 18 C-3.66 18 -4.32 18 -5 18 C-5.4125 17.05125 -5.825 16.1025 -6.25 15.125 C-8.0040131 11.99283376 -8.70851757 11.13499394 -12 10 C-11.34 10 -10.68 10 -10 10 C-9.731875 9.030625 -9.46375 8.06125 -9.1875 7.0625 C-8.5996875 5.5465625 -8.5996875 5.5465625 -8 4 C-7.01 3.67 -6.02 3.34 -5 3 C-4.01 4.485 -4.01 4.485 -3 6 C-2.690625 5.195625 -2.38125 4.39125 -2.0625 3.5625 C-1 1 -1 1 0 0 Z " fill="#D2E5B0" transform="translate(229,106)"/>
<path d="M0 0 C1.65 0.33 3.3 0.66 5 1 C5.33 2.65 5.66 4.3 6 6 C5.34 6 4.68 6 4 6 C4 5.34 4 4.68 4 4 C3.01 4.33 2.02 4.66 1 5 C1 9.62 1 14.24 1 19 C1.99 19.33 2.98 19.66 4 20 C4 18.35 4 16.7 4 15 C3.34 15 2.68 15 2 15 C2 13.68 2 12.36 2 11 C3.65 11 5.3 11 7 11 C7 15.29 7 19.58 7 24 C3.625 24.1875 3.625 24.1875 0 24 C-2.0331579 20.95026315 -2.2548508 20.31043132 -2.265625 16.875 C-2.26820313 16.08609375 -2.27078125 15.2971875 -2.2734375 14.484375 C-2.26570312 13.66453125 -2.25796875 12.8446875 -2.25 12 C-2.25773438 11.18015625 -2.26546875 10.3603125 -2.2734375 9.515625 C-2.27085937 8.72671875 -2.26828125 7.9378125 -2.265625 7.125 C-2.26336914 6.40570313 -2.26111328 5.68640625 -2.25878906 4.9453125 C-2 3 -2 3 0 0 Z " fill="#51AD32" transform="translate(147,201)"/>
<path d="M0 0 C2.390625 -0.12109375 2.390625 -0.12109375 5 0 C8.54575763 3.92566023 9.03489202 8.87959653 9 14 C8.54581444 16.48439501 7.86350619 18.61265934 7 21 C6.67 20.34 6.34 19.68 6 19 C5.360625 18.7525 4.72125 18.505 4.0625 18.25 C2 17 2 17 0.75 14.5625 C-0.27705132 9.68400622 -0.15904614 4.96577389 0 0 Z " fill="#7AB933" transform="translate(203,82)"/>
<path d="M0 0 C0.33 0 0.66 0 1 0 C1.05410687 1.77049689 1.09284119 3.54146849 1.125 5.3125 C1.14820313 6.29863281 1.17140625 7.28476563 1.1953125 8.30078125 C1 11 1 11 -1 14 C-1.66 14 -2.32 14 -3 14 C-3 14.99 -3 15.98 -3 17 C-1.68 17 -0.36 17 1 17 C1 19.31 1 21.62 1 24 C0.67 23.01 0.34 22.02 0 21 C-1.32 21 -2.64 21 -4 21 C-4 22.32 -4 23.64 -4 25 C-2.68 25 -1.36 25 0 25 C0 25.99 0 26.98 0 28 C-4.875 27.125 -4.875 27.125 -6 26 C-6.01670061 24.28996969 -5.96290858 22.57914122 -5.87890625 20.87109375 C-5.83056641 19.83662109 -5.78222656 18.80214844 -5.73242188 17.73632812 C-5.67634766 16.64771484 -5.62027344 15.55910156 -5.5625 14.4375 C-5.51029297 13.34501953 -5.45808594 12.25253906 -5.40429688 11.12695312 C-5.27415852 8.41770924 -5.13917946 5.70879206 -5 3 C-3.35 2.67 -1.7 2.34 0 2 C0 1.34 0 0.68 0 0 Z " fill="#37A014" transform="translate(230,205)"/>
<path d="M0 0 C2.69314454 4.03971682 3.74944172 8.24812214 5.125 12.875 C5.54072266 14.22271484 5.54072266 14.22271484 5.96484375 15.59765625 C6.22652344 16.47035156 6.48820312 17.34304687 6.7578125 18.2421875 C6.9964502 19.0347998 7.23508789 19.82741211 7.48095703 20.64404297 C8.03586583 23.16279645 8.09062428 25.42889227 8 28 C8.66 28 9.32 28 10 28 C10 26.02 10 24.04 10 22 C10.33 23.32 10.66 24.64 11 26 C11.66 26 12.32 26 13 26 C12.28547412 30.76350585 11.20465156 35.34201396 10 40 C9.34 39.67 8.68 39.34 8 39 C7.25130813 36.54289139 6.62412692 34.14036339 6.0546875 31.640625 C5.87994904 30.89923279 5.70521057 30.15784058 5.525177 29.39398193 C5.1564913 27.82120662 4.79193307 26.247459 4.43115234 24.67285156 C3.87993783 22.27151143 3.31411024 19.87397701 2.74609375 17.4765625 C2.3897435 15.94812192 2.03424727 14.41948192 1.6796875 12.890625 C1.51097137 12.17585999 1.34225525 11.46109497 1.16842651 10.72467041 C0.34233812 7.08572477 -0.19534485 3.73426659 0 0 Z " fill="#DB3238" transform="translate(85,63)"/>
<path d="M0 0 C2.31 0 4.62 0 7 0 C7 1.32 7 2.64 7 4 C5.35 4 3.7 4 2 4 C2 5.98 2 7.96 2 10 C3.32 10 4.64 10 6 10 C6 11.32 6 12.64 6 14 C4.68 14 3.36 14 2 14 C2 15.98 2 17.96 2 20 C3.65 20 5.3 20 7 20 C7 21.32 7 22.64 7 24 C4.69 24 2.38 24 0 24 C0 16.08 0 8.16 0 0 Z " fill="#3EA41C" transform="translate(192,201)"/>
<path d="M0 0 C0.66 1.32 1.32 2.64 2 4 C2.99 4 3.98 4 5 4 C5.33 3.01 5.66 2.02 6 1 C6.66 1.33 7.32 1.66 8 2 C8.59765625 4.328125 8.59765625 4.328125 9.0625 7.25 C9.21847656 8.20390625 9.37445313 9.1578125 9.53515625 10.140625 C9.68855469 11.08421875 9.84195313 12.0278125 10 13 C10.32587982 14.66814005 10.65674169 16.3353491 11 18 C9.68 18 8.36 18 7 18 C6.5875 16.88625 6.175 15.7725 5.75 14.625 C4.35887773 11.33509473 3.3246467 10.39420668 0 9 C-1.3125 7.0625 -1.3125 7.0625 -2 5 C-1 2 -1 2 0 0 Z " fill="#A7D732" transform="translate(220,132)"/>
<path d="M0 0 C1.32 0 2.64 0 4 0 C5.60725635 3.21451269 5.05748185 6.43612536 5 10 C3.35 10 1.7 10 0 10 C0 11.32 0 12.64 0 14 C1.65 13.67 3.3 13.34 5 13 C4.67 14.65 4.34 16.3 4 18 C2.68 18 1.36 18 0 18 C-2.30821663 14.53767506 -2.27000989 13.08201684 -2.25 9 C-2.25515625 7.948125 -2.2603125 6.89625 -2.265625 5.8125 C-2 3 -2 3 0 0 Z " fill="#44A724" transform="translate(172,207)"/>
<path d="M0 0 C0.66 0 1.32 0 2 0 C3.35439668 2.70879335 3.06501451 5.00933268 3 8 C3.66 8 4.32 8 5 8 C4.979375 7.05125 4.95875 6.1025 4.9375 5.125 C5 2 5 2 6 0 C6.66 0 7.32 0 8 0 C7.55345292 3.58490499 7.09071987 7.16753943 6.625 10.75 C6.49867188 11.76578125 6.37234375 12.7815625 6.2421875 13.828125 C6.11328125 14.8078125 5.984375 15.7875 5.8515625 16.796875 C5.73635254 17.69760742 5.62114258 18.59833984 5.50244141 19.52636719 C5.0028838 21.98580239 4.22967238 23.82476727 3 26 C2.01 26 1.02 26 0 26 C0 24.68 0 23.36 0 22 C0.66 21.67 1.32 21.34 2 21 C1.49656013 13.97326485 0.95812032 6.98059091 0 0 Z " fill="#49A92A" transform="translate(232,207)"/>
<path d="M0 0 C3.53571429 0.53571429 3.53571429 0.53571429 5 2 C5.14115161 4.67058851 5.04247107 7.32432238 5 10 C3.35 10 1.7 10 0 10 C0.66 11.32 1.32 12.64 2 14 C2.99 14 3.98 14 5 14 C4.34 15.32 3.68 16.64 3 18 C1.68 18 0.36 18 -1 18 C-2.48520725 15.02958551 -2.1705822 12.30235553 -2.1875 9 C-2.20167969 7.741875 -2.21585938 6.48375 -2.23046875 5.1875 C-2 2 -2 2 0 0 Z " fill="#75BE5D" transform="translate(212,207)"/>
<path d="M0 0 C0.66 0.66 1.32 1.32 2 2 C2.66 1.67 3.32 1.34 4 1 C4 4.3 4 7.6 4 11 C3.67 10.34 3.34 9.68 3 9 C2.34 9 1.68 9 1 9 C1 9.99 1 10.98 1 12 C0.34 12 -0.32 12 -1 12 C-1.33 13.32 -1.66 14.64 -2 16 C-2.66 15.67 -3.32 15.34 -4 15 C-4.33 15.66 -4.66 16.32 -5 17 C-5.76681614 6.31569507 -5.76681614 6.31569507 -3.88671875 3.08984375 C-2.5 1.75 -2.5 1.75 0 0 Z " fill="#68AD51" transform="translate(218,121)"/>
<path d="M0 0 C2.15059309 3.53186832 2.3797728 6.66287993 2.625 10.75 C2.69976562 11.92046875 2.77453125 13.0909375 2.8515625 14.296875 C2.90054688 15.18890625 2.94953125 16.0809375 3 17 C2.01 17.33 1.02 17.66 0 18 C0 18.99 0 19.98 0 21 C-0.66 21 -1.32 21 -2 21 C-2 20.34 -2 19.68 -2 19 C-3.32 19 -4.64 19 -6 19 C-6 17.68 -6 16.36 -6 15 C-4.68 15 -3.36 15 -2 15 C-1.67 13.68 -1.34 12.36 -1 11 C-2.32 11 -3.64 11 -5 11 C-5 10.01 -5 9.02 -5 8 C-4 7 -3 6 -2 5 C-0.80972016 2.40084462 -0.80972016 2.40084462 0 0 Z " fill="#EAF5E6" transform="translate(232,211)"/>
<path d="M0 0 C3 1 3 1 3.94921875 2.70703125 C4.19285156 3.40183594 4.43648437 4.09664062 4.6875 4.8125 C4.93886719 5.49957031 5.19023437 6.18664062 5.44921875 6.89453125 C6 9 6 9 6 13 C7.32 13 8.64 13 10 13 C9 15 8 17 7 19 C7.66 19 8.32 19 9 19 C8.67 20.32 8.34 21.64 8 23 C6.68 22.67 5.36 22.34 4 22 C3.87882813 21.07058594 3.75765625 20.14117187 3.6328125 19.18359375 C2.78943057 12.9620301 1.9452937 6.97483065 0 1 C0 0.67 0 0.34 0 0 Z " fill="#298B42" transform="translate(221,146)"/>
<path d="M0 0 C1.98 0 3.96 0 6 0 C7 1 7 1 7.09765625 4.81640625 C7.09098089 6.39846682 7.07901875 7.98051159 7.0625 9.5625 C7.05798828 10.36880859 7.05347656 11.17511719 7.04882812 12.00585938 C7.03700518 14.00393756 7.01906914 16.00197783 7 18 C6.34 18 5.68 18 5 18 C5 13.38 5 8.76 5 4 C4.01 4 3.02 4 2 4 C2 8.62 2 13.24 2 18 C1.34 18 0.68 18 0 18 C0 12.06 0 6.12 0 0 Z " fill="#50AD32" transform="translate(201,207)"/>
<path d="M0 0 C1.98 0 3.96 0 6 0 C7 1 7 1 7.09765625 4.81640625 C7.09098089 6.39846682 7.07901875 7.98051159 7.0625 9.5625 C7.05798828 10.36880859 7.05347656 11.17511719 7.04882812 12.00585938 C7.03700518 14.00393756 7.01906914 16.00197783 7 18 C6.34 18 5.68 18 5 18 C5 13.38 5 8.76 5 4 C4.01 4 3.02 4 2 4 C2 8.62 2 13.24 2 18 C1.34 18 0.68 18 0 18 C0 12.06 0 6.12 0 0 Z " fill="#49A929" transform="translate(179,207)"/>
<path d="M0 0 C0.66 0 1.32 0 2 0 C3.20568053 4.67201205 3.09382426 9.21496292 3 14 C1.68 13.67 0.36 13.34 -1 13 C-1.66 14.32 -2.32 15.64 -3 17 C-3 15.68 -3 14.36 -3 13 C-3.99 13 -4.98 13 -6 13 C-5.625 11.0625 -5.625 11.0625 -5 9 C-4.34 8.67 -3.68 8.34 -3 8 C-2.65977214 6.00116131 -2.32670903 4.00109278 -2 2 C-1.34 1.34 -0.68 0.68 0 0 Z " fill="#6DB053" transform="translate(234,103)"/>
<path d="M0 0 C1.5 1.375 1.5 1.375 3 3 C3 3.66 3 4.32 3 5 C2.34 5 1.68 5 1 5 C1.185625 5.721875 1.37125 6.44375 1.5625 7.1875 C2.01995307 10.12826973 1.73516357 12.14103058 1 15 C-0.32 14.01 -1.64 13.02 -3 12 C-5.7839183 13.39195915 -5.97898997 15.15575779 -7 18 C-7.66 18 -8.32 18 -9 18 C-9 16.02 -9 14.04 -9 12 C-8.01 12 -7.02 12 -6 12 C-5.87625 11.071875 -5.7525 10.14375 -5.625 9.1875 C-5 6 -5 6 -3 3 C-2.01 3.33 -1.02 3.66 0 4 C0 2.68 0 1.36 0 0 Z " fill="#87C04C" transform="translate(226,98)"/>
<path d="M0 0 C0.46417129 9.81636321 0.46417129 9.81636321 -1.25 14.1875 C-1.8275 14.785625 -2.405 15.38375 -3 16 C-4.32 16 -5.64 16 -7 16 C-7.05437607 14.41705218 -7.09296271 12.83355744 -7.125 11.25 C-7.14820313 10.36828125 -7.17140625 9.4865625 -7.1953125 8.578125 C-6.98841959 5.84713852 -6.46890403 4.29292336 -5 2 C-1.7 0 -1.7 0 0 0 Z " fill="#81BB3C" transform="translate(245,79)"/>
<path d="M0 0 C2.12336848 2.12336848 2.50712167 3.10834007 3.34448242 5.91137695 C3.58780807 6.71593826 3.83113373 7.52049957 4.08183289 8.34944153 C4.33713272 9.22025864 4.59243256 10.09107574 4.85546875 10.98828125 C5.12136307 11.88363083 5.38725739 12.77898041 5.66120911 13.70146179 C6.22178155 15.59774657 6.77887407 17.495063 7.33276367 19.39331055 C8.18215021 22.29422881 9.05038281 25.18905253 9.91992188 28.08398438 C10.46210128 29.92674132 11.00315416 31.76983017 11.54296875 33.61328125 C11.80434128 34.47802567 12.06571381 35.34277008 12.33500671 36.23371887 C14.47493693 43.68207669 14.47493693 43.68207669 13 48 C11.0989802 44.590226 10.14279313 41.16784603 9.16015625 37.3984375 C8.99253281 36.76193268 8.82490936 36.12542786 8.65220642 35.46963501 C8.11814131 33.43915431 7.58998347 31.40719946 7.0625 29.375 C6.36826184 26.71551901 5.6710804 24.05682191 4.97265625 21.3984375 C4.64023926 20.1309668 4.30782227 18.86349609 3.96533203 17.55761719 C2.91401064 13.68309637 1.75561907 9.85482141 0.51342773 6.03759766 C0 4 0 4 0 0 Z " fill="#E87D81" transform="translate(54,22)"/>
<path d="M0 0 C1.32 0 2.64 0 4 0 C4 0.99 4 1.98 4 3 C3.01 3 2.02 3 1 3 C1 4.32 1 5.64 1 7 C1.99 7 2.98 7 4 7 C4.33 6.01 4.66 5.02 5 4 C5 5.98 5 7.96 5 10 C3.68 10 2.36 10 1 10 C1.66 11.32 2.32 12.64 3 14 C3.66 13.67 4.32 13.34 5 13 C4.67 14.65 4.34 16.3 4 18 C2.68 18 1.36 18 0 18 C-1.48619895 15.02760209 -1.13177009 12.30380422 -1.125 9 C-1.12757813 7.741875 -1.13015625 6.48375 -1.1328125 5.1875 C-1 2 -1 2 0 0 Z " fill="#309D0C" transform="translate(163,207)"/>
<path d="M0 0 C2.20520119 3.84360369 3.22954001 8.0224516 4.3828125 12.265625 C4.60194305 13.05902283 4.82107361 13.85242065 5.04684448 14.66986084 C5.74345509 17.19552131 6.43429922 19.72271769 7.125 22.25 C7.59727638 23.96625041 8.06992835 25.68239751 8.54296875 27.3984375 C9.69966868 31.59777353 10.85120072 35.79849606 12 40 C11.01 40.495 11.01 40.495 10 41 C8.75291926 36.73217851 7.50788127 32.46376777 6.26464844 28.19482422 C5.84234385 26.74577147 5.41950303 25.29687488 4.99609375 23.84814453 C4.38396875 21.75334885 3.77384089 19.6579798 3.1640625 17.5625 C2.79748535 16.30566406 2.4309082 15.04882812 2.05322266 13.75390625 C1.70565918 12.51511719 1.3580957 11.27632812 1 10 C0.69579132 8.92081299 0.69579132 8.92081299 0.38543701 7.81982422 C-1.11732967 2.23465934 -1.11732967 2.23465934 0 0 Z " fill="#E98387" transform="translate(123,183)"/>
<path d="M0 0 C1.65 0 3.3 0 5 0 C5 1.32 5 2.64 5 4 C4.34 4 3.68 4 3 4 C3 8.62 3 13.24 3 18 C2.01 18 1.02 18 0 18 C0 12.06 0 6.12 0 0 Z " fill="#68B84E" transform="translate(218,207)"/>
<path d="M0 0 C8.95652174 -0.62608696 8.95652174 -0.62608696 13.125 1.875 C15 4 15 4 15 6 C14.34 6 13.68 6 13 6 C13 6.66 13 7.32 13 8 C12.34 8 11.68 8 11 8 C10.67 7.34 10.34 6.68 10 6 C9.01 7.98 8.02 9.96 7 12 C6.67 12 6.34 12 6 12 C6 8.37 6 4.74 6 1 C4.02 1 2.04 1 0 1 C0 0.67 0 0.34 0 0 Z " fill="#649634" transform="translate(220,56)"/>
<path d="M0 0 C0.33 0 0.66 0 1 0 C1 5.94 1 11.88 1 18 C0.67 16.68 0.34 15.36 0 14 C-1.98 14 -3.96 14 -6 14 C-6 12.02 -6 10.04 -6 8 C-4.35 8 -2.7 8 -1 8 C-0.67 5.36 -0.34 2.72 0 0 Z " fill="#E7F3E3" transform="translate(200,207)"/>
<path d="M0 0 C0.93423645 3.01031744 1.04449911 3.86650268 0 7 C0.66 7 1.32 7 2 7 C1.40380045 11.86896303 0.43023178 16.32790951 -1 21 C-1.66 20.34 -2.32 19.68 -3 19 C-3.66 19.99 -4.32 20.98 -5 22 C-4.38955672 14.36945905 -2.20378179 7.29810526 0 0 Z " fill="#E04D52" transform="translate(116,77)"/>
<path d="M0 0 C1.32 2.31 2.64 4.62 4 7 C3.34 7.66 2.68 8.32 2 9 C0.5164999 8.57742724 -0.96176424 8.13643678 -2.4375 7.6875 C-3.26121094 7.44386719 -4.08492187 7.20023437 -4.93359375 6.94921875 C-5.61550781 6.63597656 -6.29742187 6.32273437 -7 6 C-7.33 5.01 -7.66 4.02 -8 3 C-3.375 0 -3.375 0 0 0 Z " fill="#6BA52C" transform="translate(228,75)"/>
<path d="M0 0 C2.7057163 4.05857446 3.83169193 8.29845068 5.25 12.9375 C5.54390625 13.84435547 5.8378125 14.75121094 6.140625 15.68554688 C6.40875 16.56146484 6.676875 17.43738281 6.953125 18.33984375 C7.20223633 19.13769287 7.45134766 19.93554199 7.70800781 20.75756836 C8.06327153 23.48591051 7.43322884 24.70138206 6 27 C4.55501021 24.30472732 3.59758076 21.82920025 2.9296875 18.84765625 C2.75566406 18.07099609 2.58164063 17.29433594 2.40234375 16.49414062 C2.14130859 15.29047852 2.14130859 15.29047852 1.875 14.0625 C1.69324219 13.26392578 1.51148437 12.46535156 1.32421875 11.64257812 C0.45532536 7.69989272 -0.24634709 4.06472692 0 0 Z " fill="#E4666B" transform="translate(85,63)"/>
<path d="M0 0 C1.65 0 3.3 0 5 0 C5 4.29 5 8.58 5 13 C3.68 13 2.36 13 1 13 C1 12.01 1 11.02 1 10 C0.34 9.67 -0.32 9.34 -1 9 C-0.01 9 0.98 9 2 9 C2 7.35 2 5.7 2 4 C1.34 4 0.68 4 0 4 C0 2.68 0 1.36 0 0 Z " fill="#76BE5E" transform="translate(149,212)"/>
<path d="M0 0 C0.33 0 0.66 0 1 0 C1 4.95 1 9.9 1 15 C0.34 15 -0.32 15 -1 15 C-1 19.95 -1 24.9 -1 30 C-1.33 30 -1.66 30 -2 30 C-2.05834395 26.12506384 -2.09371201 22.25024164 -2.125 18.375 C-2.14175781 17.28058594 -2.15851563 16.18617187 -2.17578125 15.05859375 C-2.23662606 5.01920021 -2.23662606 5.01920021 0 0 Z " fill="#B4C096" transform="translate(208,109)"/>
<path d="M0 0 C1.65 0.33 3.3 0.66 5 1 C5 4.3 5 7.6 5 11 C4.67 11 4.34 11 4 11 C3.67 8.69 3.34 6.38 3 4 C1.68 4.33 0.36 4.66 -1 5 C-1 7.64 -1 10.28 -1 13 C-2.98 13.99 -2.98 13.99 -5 15 C-3.25740319 4.44191344 -3.25740319 4.44191344 0 0 Z " fill="#609925" transform="translate(241,76)"/>
<path d="M0 0 C1.98 0.99 1.98 0.99 4 2 C3.01 2.495 3.01 2.495 2 3 C2 4.32 2 5.64 2 7 C2.99 6.67 3.98 6.34 5 6 C4.49202991 10.3177458 3.80317221 14.03302114 2 18 C-0.45391569 14.31912647 -0.22802759 11.55644412 -0.125 7.3125 C-0.11597656 6.61060547 -0.10695312 5.90871094 -0.09765625 5.18554688 C-0.07413704 3.45688475 -0.03826713 1.72839855 0 0 Z " fill="#308F45" transform="translate(234,117)"/>
<path d="M0 0 C1.20628008 2.33214148 2.1654738 4.49642139 3 7 C3.66 7 4.32 7 5 7 C5 7.66 5 8.32 5 9 C4.34 9 3.68 9 3 9 C3 10.65 3 12.3 3 14 C2.34 13.67 1.68 13.34 1 13 C0.59270772 10.67843403 0.25561323 8.3431213 0 6 C-0.99 7.485 -0.99 7.485 -2 9 C-2.33 7.68 -2.66 6.36 -3 5 C-3.66 5.66 -4.32 6.32 -5 7 C-5 5.35 -5 3.7 -5 2 C-3.35 1.34 -1.7 0.68 0 0 Z " fill="#3E9649" transform="translate(221,117)"/>
<path d="M0 0 C2.7717394 2.7717394 2.97922517 4.61220311 3.1875 8.5 C3 12 3 12 1 15 C0.67 14.34 0.34 13.68 0 13 C-0.99 13 -1.98 13 -3 13 C-3 11.68 -3 10.36 -3 9 C-1.68 9 -0.36 9 1 9 C0.67 8.01 0.34 7.02 0 6 C-0.99 6 -1.98 6 -3 6 C-3 4.68 -3 3.36 -3 2 C-2.01 2 -1.02 2 0 2 C0 1.34 0 0.68 0 0 Z " fill="#E3F1DE" transform="translate(167,208)"/>
<path d="M0 0 C0.66 0.33 1.32 0.66 2 1 C2.25 6.625 2.25 6.625 0 10 C-3.125 10.6875 -3.125 10.6875 -6 11 C-5.67 9.35 -5.34 7.7 -5 6 C-4.01 6 -3.02 6 -2 6 C-1.855625 5.195625 -1.71125 4.39125 -1.5625 3.5625 C-1 1 -1 1 0 0 Z " fill="#91C25C" transform="translate(215,52)"/>
<path d="M0 0 C2 2 2 2 2 5 C2.66 5 3.32 5 4 5 C4.33 3.35 4.66 1.7 5 0 C5.33 0 5.66 0 6 0 C6 4.95 6 9.9 6 15 C5.67 15 5.34 15 5 15 C4.67 13.02 4.34 11.04 4 9 C3.34 9 2.68 9 2 9 C1.67 10.98 1.34 12.96 1 15 C0.67 15 0.34 15 0 15 C0 10.05 0 5.1 0 0 Z " fill="#1B1B1B" transform="translate(247,25)"/>
<path d="M0 0 C0.33 0 0.66 0 1 0 C1 5.94 1 11.88 1 18 C0.34 17.34 -0.32 16.68 -1 16 C-1 15.01 -1 14.02 -1 13 C-2.65 13.33 -4.3 13.66 -6 14 C-6 12.68 -6 11.36 -6 10 C-4.35 10 -2.7 10 -1 10 C-1.020625 8.906875 -1.04125 7.81375 -1.0625 6.6875 C-1 3 -1 3 0 0 Z " fill="#E3F2DE" transform="translate(178,207)"/>
<path d="M0 0 C0.33 0.99 0.66 1.98 1 3 C2.65 3 4.3 3 6 3 C4.68 3.33 3.36 3.66 2 4 C2 5.98 2 7.96 2 10 C3.65 10 5.3 10 7 10 C7 11.32 7 12.64 7 14 C4.69 14 2.38 14 0 14 C0 9.38 0 4.76 0 0 Z " fill="#4CAB2D" transform="translate(192,211)"/>
<path d="M0 0 C0.33 0 0.66 0 1 0 C1 3.63 1 7.26 1 11 C0.67 11 0.34 11 0 11 C0 8.36 0 5.72 0 3 C-1.35618499 4.12534105 -1.35618499 4.12534105 -1.0625 7.0625 C-1.041875 8.031875 -1.02125 9.00125 -1 10 C-1.99 10.33 -2.98 10.66 -4 11 C-4.33 11.99 -4.66 12.98 -5 14 C-5 10.37 -5 6.74 -5 3 C-3.35 2.67 -1.7 2.34 0 2 C0 1.34 0 0.68 0 0 Z " fill="#7DC166" transform="translate(230,205)"/>
<path d="M0 0 C2.56139016 3.84208524 3.20985157 7.47278786 4.1875 11.9375 C4.47270508 13.15469727 4.47270508 13.15469727 4.76367188 14.39648438 C4.93833984 15.18216797 5.11300781 15.96785156 5.29296875 16.77734375 C5.4530542 17.49140381 5.61313965 18.20546387 5.77807617 18.94116211 C6.02304943 21.21383485 5.67946622 22.83235338 5 25 C-1.51383399 4.54150198 -1.51383399 4.54150198 0 0 Z " fill="#E04C52" transform="translate(98,160)"/>
<path d="M0 0 C0.66 0 1.32 0 2 0 C2.33 1.65 2.66 3.3 3 5 C2.01 5.66 1.02 6.32 0 7 C-0.99 8.485 -0.99 8.485 -2 10 C-2 9.34 -2 8.68 -2 8 C-2.99 8.33 -3.98 8.66 -5 9 C-5.99 7.35 -6.98 5.7 -8 4 C-7.01 3.67 -6.02 3.34 -5 3 C-4.01 4.485 -4.01 4.485 -3 6 C-2.690625 5.195625 -2.38125 4.39125 -2.0625 3.5625 C-1 1 -1 1 0 0 Z " fill="#AFD28B" transform="translate(229,106)"/>
<path d="M0 0 C0.66 0 1.32 0 2 0 C2.268125 0.969375 2.53625 1.93875 2.8125 2.9375 C3.204375 3.948125 3.59625 4.95875 4 6 C4.99 6.33 5.98 6.66 7 7 C7 8.98 7 10.96 7 13 C6.34 12.67 5.68 12.34 5 12 C5 11.34 5 10.68 5 10 C4.38125 9.87625 3.7625 9.7525 3.125 9.625 C1 9 1 9 -1 7 C-0.625 3.375 -0.625 3.375 0 0 Z " fill="#8CC250" transform="translate(232,50)"/>
<path d="M0 0 C1.32 0 2.64 0 4 0 C4 1.32 4 2.64 4 4 C3.34 4 2.68 4 2 4 C2 8.62 2 13.24 2 18 C1.34 18 0.68 18 0 18 C0 12.06 0 6.12 0 0 Z " fill="#4DAB2E" transform="translate(156,207)"/>
<path d="M0 0 C0.33 0.99 0.66 1.98 1 3 C1.99 2.67 2.98 2.34 4 2 C4.66 2.33 5.32 2.66 6 3 C6 3.66 6 4.32 6 5 C6.66 5.33 7.32 5.66 8 6 C0.375 8 0.375 8 -3 8 C-3.36923077 3.44615385 -3.36923077 3.44615385 -1.5 1.1875 C-1.005 0.795625 -0.51 0.40375 0 0 Z " fill="#8DC147" transform="translate(217,77)"/>
<path d="M0 0 C0.66 0 1.32 0 2 0 C2 1.65 2 3.3 2 5 C0.35 5.33 -1.3 5.66 -3 6 C-3 6.66 -3 7.32 -3 8 C-3.66 8 -4.32 8 -5 8 C-7 5 -7 5 -6.625 2.8125 C-6.41875 2.214375 -6.2125 1.61625 -6 1 C-6 1.66 -6 2.32 -6 3 C-2.75016865 1.91215032 -2.75016865 1.91215032 0 0 Z " fill="#B7D688" transform="translate(229,116)"/>
<path d="M0 0 C0.33 0 0.66 0 1 0 C1 5.61 1 11.22 1 17 C-1 16 -1 16 -2.1875 13.4375 C-3.19372496 9.1803944 -2.73953399 6.28929715 -2 2 C-1.34 2 -0.68 2 0 2 C0 1.34 0 0.68 0 0 Z " fill="#DC363C" transform="translate(107,115)"/>
<path d="M0 0 C0.66 0 1.32 0 2 0 C2.99 2.64 3.98 5.28 5 8 C5.66 8 6.32 8 7 8 C7.33 10.31 7.66 12.62 8 15 C6.10546875 14.73046875 6.10546875 14.73046875 4 14 C2.98828125 12.36328125 2.98828125 12.36328125 2.3125 10.3125 C2.0753125 9.59707031 1.838125 8.88164062 1.59375 8.14453125 C0.84795691 5.45084436 0.34655535 2.77244279 0 0 Z " fill="#ABD094" transform="translate(230,124)"/>
<path d="M0 0 C0.66 0.33 1.32 0.66 2 1 C2 4.63 2 8.26 2 12 C0.68 11.34 -0.64 10.68 -2 10 C-2.17942163 6.05272412 -2.09350689 3.4019487 0 0 Z " fill="#79B834" transform="translate(229,61)"/>
<path d="M0 0 C1.125 1.5 1.125 1.5 2 4 C1.57598348 6.7773082 0.81108065 9.29639783 0 12 C-0.33 11.34 -0.66 10.68 -1 10 C-1.66 10 -2.32 10 -3 10 C-3.625 6.625 -3.625 6.625 -4 3 C-3.34 2.34 -2.68 1.68 -2 1 C-1.67 1.33 -1.34 1.66 -1 2 C-0.67 1.34 -0.34 0.68 0 0 Z " fill="#8EBC4C" transform="translate(210,91)"/>
<path d="M0 0 C1.32 0 2.64 0 4 0 C3.67 5.28 3.34 10.56 3 16 C2.34 16 1.68 16 1 16 C0.67 10.72 0.34 5.44 0 0 Z " fill="#444444" transform="translate(241,25)"/>
<path d="M0 0 C2.475 0.495 2.475 0.495 5 1 C6.06351675 4.38391693 6.21442982 5.5804634 4.5625 8.8125 C4.046875 9.534375 3.53125 10.25625 3 11 C1.7900012 7.3700036 0.91373989 3.71587555 0 0 Z " fill="#B7D57C" transform="translate(225,82)"/>
<path d="M0 0 C0.33 0 0.66 0 1 0 C1 3.63 1 7.26 1 11 C0.01 11 -0.98 11 -2 11 C-2 10.01 -2 9.02 -2 8 C-2.99 8 -3.98 8 -5 8 C-5 6.68 -5 5.36 -5 4 C-3.35 4 -1.7 4 0 4 C0 2.68 0 1.36 0 0 Z " fill="#EBF6E8" transform="translate(217,213)"/>
<path d="M0 0 C0.99 0.33 1.98 0.66 3 1 C2.34 6.61 1.68 12.22 1 18 C0.67 18 0.34 18 0 18 C0 12.06 0 6.12 0 0 Z " fill="#C4DC85" transform="translate(209,111)"/>
<path d="M0 0 C0.99 0 1.98 0 3 0 C3.2226746 1.43534841 3.42761906 2.87345525 3.625 4.3125 C3.74101562 5.11300781 3.85703125 5.91351563 3.9765625 6.73828125 C4 9 4 9 2 12 C0.06826897 10.06826897 0.36609741 6.60844406 0 4 C-0.33 3.34 -0.66 2.68 -1 2 C-0.67 1.34 -0.34 0.68 0 0 Z " fill="#5E9D20" transform="translate(219,59)"/>
<path d="M0 0 C1.5 1.3125 1.5 1.3125 3 3 C3 3.99 3 4.98 3 6 C3.99 6 4.98 6 6 6 C6 6.99 6 7.98 6 9 C4.02 9.33 2.04 9.66 0 10 C-1.125 2.25 -1.125 2.25 0 0 Z " fill="#2F8E44" transform="translate(231,132)"/>
<path d="M0 0 C0.33 0.99 0.66 1.98 1 3 C1.66 3 2.32 3 3 3 C2.34 6.3 1.68 9.6 1 13 C0.34 12.34 -0.32 11.68 -1 11 C-1.99 11.495 -1.99 11.495 -3 12 C-2.01 8.04 -1.02 4.08 0 0 Z " fill="#DF4A50" transform="translate(80,126)"/>
<path d="M0 0 C2 2 2 2 2.22705078 3.97119141 C2.21657715 4.75671387 2.20610352 5.54223633 2.1953125 6.3515625 C2.18886719 7.20234375 2.18242187 8.053125 2.17578125 8.9296875 C2.15902344 9.81914063 2.14226562 10.70859375 2.125 11.625 C2.11597656 12.5221875 2.10695312 13.419375 2.09765625 14.34375 C2.0740497 16.56276586 2.0411231 18.78125077 2 21 C1.67 21 1.34 21 1 21 C0.6358011 18.4385681 0.28337202 15.87641581 -0.0625 13.3125 C-0.16626953 12.59126953 -0.27003906 11.87003906 -0.37695312 11.12695312 C-0.9023633 7.15920043 -1.10596507 3.92114889 0 0 Z " fill="#819C72" transform="translate(243,117)"/>
<path d="M0 0 C1.32 1.32 2.64 2.64 4 4 C3.34 4 2.68 4 2 4 C1.67 6.31 1.34 8.62 1 11 C0.34 11 -0.32 11 -1 11 C-1.33 11.66 -1.66 12.32 -2 13 C-3.71050559 8.02398374 -2.00885647 4.57383705 0 0 Z " fill="#43924C" transform="translate(231,84)"/>
<path d="M0 0 C1.65 0 3.3 0 5 0 C6.33332095 2.6666419 5.67102033 4.16680303 5 7 C4.01 6.01 3.02 5.02 2 4 C1.67 6.31 1.34 8.62 1 11 C0.67 11 0.34 11 0 11 C0 7.37 0 3.74 0 0 Z " fill="#62AA1F" transform="translate(203,82)"/>
<path d="M0 0 C0.33 0 0.66 0 1 0 C1.06058594 0.67546875 1.12117187 1.3509375 1.18359375 2.046875 C1.26738281 2.93890625 1.35117188 3.8309375 1.4375 4.75 C1.51871094 5.63171875 1.59992188 6.5134375 1.68359375 7.421875 C1.96238465 9.69350452 2.38790577 11.79851823 3 14 C3.66 14 4.32 14 5 14 C5 14.99 5 15.98 5 17 C3.0625 16.625 3.0625 16.625 1 16 C-0.50156874 12.99686252 -0.09281204 10.20932478 -0.0625 6.875 C-0.05347656 5.59367188 -0.04445312 4.31234375 -0.03515625 2.9921875 C-0.02355469 2.00476563 -0.01195312 1.01734375 0 0 Z " fill="#36A013" transform="translate(145,208)"/>
<path d="M0 0 C2.58926331 2.58926331 2.37398043 4.02705279 2.625 7.625 C2.69976562 8.62789062 2.77453125 9.63078125 2.8515625 10.6640625 C2.92503906 11.82035156 2.92503906 11.82035156 3 13 C2.34 13 1.68 13 1 13 C0.01 9.04 -0.98 5.08 -2 1 C-1.34 0.67 -0.68 0.34 0 0 Z " fill="#DD3F45" transform="translate(108,130)"/>
<path d="M0 0 C0.33 0.66 0.66 1.32 1 2 C1.99 2.33 2.98 2.66 4 3 C3.01 3 2.02 3 1 3 C1 4.32 1 5.64 1 7 C2.32 7 3.64 7 5 7 C5 7.99 5 8.98 5 10 C0.125 9.125 0.125 9.125 -1 8 C-1.23529412 2.47058824 -1.23529412 2.47058824 0 0 Z " fill="#4FAC30" transform="translate(225,223)"/>
<path d="M0 0 C0.66 0 1.32 0 2 0 C3.35439668 2.70879335 3.06501451 5.00933268 3 8 C3.66 8 4.32 8 5 8 C5 9.32 5 10.64 5 12 C4.01 12 3.02 12 2 12 C0.86235649 7.73383684 0 4.43513689 0 0 Z " fill="#65B64A" transform="translate(232,207)"/>
<path d="M0 0 C1.57554035 2.88628401 2.46276373 5.53342384 3.125 8.75 C3.29257813 9.54921875 3.46015625 10.3484375 3.6328125 11.171875 C3.81457031 12.07679688 3.81457031 12.07679688 4 13 C3.01 13 2.02 13 1 13 C-1.48887372 8.31506124 -0.85687773 5.0555786 0 0 Z " fill="#E15459" transform="translate(111,139)"/>
<path d="M0 0 C1.32 0.66 2.64 1.32 4 2 C4 3.98 4 5.96 4 8 C2.68 8 1.36 8 0 8 C-0.79953138 4.71303767 -1.09658936 3.28976808 0 0 Z " fill="#8BC244" transform="translate(231,74)"/>
<path d="M0 0 C0.433125 0.66 0.86625 1.32 1.3125 2 C2.1478125 2.99 2.1478125 2.99 3 4 C3.99 4 4.98 4 6 4 C5.34 5.32 4.68 6.64 4 8 C2.68 8 1.36 8 0 8 C-0.79953138 4.71303767 -1.09658936 3.28976808 0 0 Z " fill="#4DAB2E" transform="translate(211,217)"/>
<path d="M0 0 C2.00720923 0.28674418 4.0085944 0.61866701 6 1 C5.67 2.98 5.34 4.96 5 7 C4.34 7 3.68 7 3 7 C2.67 6.34 2.34 5.68 2 5 C1.34 5 0.68 5 0 5 C-0.5625 3.0625 -0.5625 3.0625 -1 1 C-0.67 0.67 -0.34 0.34 0 0 Z " fill="#B2D382" transform="translate(236,119)"/>
<path d="M0 0 C1.98 0.99 1.98 0.99 4 2 C3.67 4.64 3.34 7.28 3 10 C2.01 10 1.02 10 0 10 C0 6.7 0 3.4 0 0 Z " fill="#92C64E" transform="translate(238,85)"/>
<path d="M0 0 C0.33 0 0.66 0 1 0 C1 2.64 1 5.28 1 8 C0.34 8 -0.32 8 -1 8 C-1 7.34 -1 6.68 -1 6 C-2.32 6 -3.64 6 -5 6 C-5 4.68 -5 3.36 -5 2 C-3.68 2 -2.36 2 -1 2 C-0.67 1.34 -0.34 0.68 0 0 Z " fill="#B4DBA7" transform="translate(231,224)"/>
<path d="M0 0 C3.00617269 3.00617269 2.59585316 5.82381598 3 10 C0.03 9.505 0.03 9.505 -3 9 C-2.67 7.68 -2.34 6.36 -2 5 C-1.34 5 -0.68 5 0 5 C0 3.35 0 1.7 0 0 Z " fill="#C8DFA1" transform="translate(241,121)"/>
<path d="M0 0 C0.66 0 1.32 0 2 0 C2.33 1.32 2.66 2.64 3 4 C2.01 4.495 2.01 4.495 1 5 C0.27840576 6.64363134 -0.39351421 8.31050386 -1 10 C-1.66 10 -2.32 10 -3 10 C-3 8.02 -3 6.04 -3 4 C-2.01 4 -1.02 4 0 4 C0 2.68 0 1.36 0 0 Z " fill="#479B53" transform="translate(220,106)"/>
<path d="M0 0 C3 2 3 2 3.73046875 4.1640625 C3.88128906 4.97617188 4.03210938 5.78828125 4.1875 6.625 C4.34605469 7.44226563 4.50460938 8.25953125 4.66796875 9.1015625 C4.83232422 10.04128906 4.83232422 10.04128906 5 11 C4.01 11.66 3.02 12.32 2 13 C1.66127487 11.58461283 1.32925376 10.16762037 1 8.75 C0.814375 7.96109375 0.62875 7.1721875 0.4375 6.359375 C0 4 0 4 0 0 Z " fill="#DD4045" transform="translate(76,100)"/>
<path d="M0 0 C1.32 0.66 2.64 1.32 4 2 C3.01 2 2.02 2 1 2 C0.34 4.31 -0.32 6.62 -1 9 C-2.32 8.01 -3.64 7.02 -5 6 C-3.35 4.02 -1.7 2.04 0 0 Z " fill="#151D0D" transform="translate(218,57)"/>
<path d="M0 0 C0.33 0.99 0.66 1.98 1 3 C1.99 3 2.98 3 4 3 C4 4.98 4 6.96 4 9 C3.34 8.34 2.68 7.68 2 7 C1.34 8.32 0.68 9.64 0 11 C-1.35015859 6.94952424 -0.62084998 4.2079832 0 0 Z " fill="#BFDA84" transform="translate(234,151)"/>
<path d="M0 0 C0 3.63 0 7.26 0 11 C-0.33 11 -0.66 11 -1 11 C-1 9.02 -1 7.04 -1 5 C-1.99 5 -2.98 5 -4 5 C-4.33 5.66 -4.66 6.32 -5 7 C-5 5.35 -5 3.7 -5 2 C-1.125 0 -1.125 0 0 0 Z " fill="#6FB628" transform="translate(245,79)"/>
<path d="M0 0 C0.99 1.32 1.98 2.64 3 4 C3.66 3.67 4.32 3.34 5 3 C4.67 4.65 4.34 6.3 4 8 C2.68 8 1.36 8 0 8 C-0.98120464 4.94736336 -0.98120464 3.05263664 0 0 Z " fill="#49A929" transform="translate(163,217)"/>
<path d="M0 0 C2.1793144 1.75864246 2.93686419 2.69396 3.51171875 5.48046875 C3.56972656 6.37378906 3.62773438 7.26710937 3.6875 8.1875 C3.75324219 9.08855469 3.81898437 9.98960937 3.88671875 10.91796875 C3.92410156 11.60503906 3.96148437 12.29210937 4 13 C3.34 12.67 2.68 12.34 2 12 C0.73238238 7.70418473 0 4.49055702 0 0 Z " fill="#DC393F" transform="translate(113,151)"/>
<path d="M0 0 C0.99 0.33 1.98 0.66 3 1 C4.1875 4.5625 4.1875 4.5625 5 8 C3.68 8 2.36 8 1 8 C0.67 5.36 0.34 2.72 0 0 Z " fill="#3A9445" transform="translate(214,136)"/>
<path d="M0 0 C0.66 0 1.32 0 2 0 C2 3.3 2 6.6 2 10 C1.01 10.495 1.01 10.495 0 11 C-0.19406478 9.35492782 -0.38007935 7.70890406 -0.5625 6.0625 C-0.66691406 5.14597656 -0.77132812 4.22945313 -0.87890625 3.28515625 C-0.91886719 2.53105469 -0.95882812 1.77695313 -1 1 C-0.67 0.67 -0.34 0.34 0 0 Z " fill="#A7CE7E" transform="translate(234,103)"/>
<path d="M0 0 C1.5625 1 1.5625 1 3 3 C2.96726452 5.76614782 2.49404328 8.26030547 2 11 C0.4375 9.4375 0.4375 9.4375 -1 7 C-0.6875 3.25 -0.6875 3.25 0 0 Z " fill="#72AD31" transform="translate(208,84)"/>
<path d="M0 0 C1.98 0 3.96 0 6 0 C6 1.32 6 2.64 6 4 C4.02 4 2.04 4 0 4 C0 2.68 0 1.36 0 0 Z " fill="#41A51F" transform="translate(193,221)"/>
<path d="M0 0 C-0.33 1.65 -0.66 3.3 -1 5 C-2.32 5 -3.64 5 -5 5 C-5 3.68 -5 2.36 -5 1 C-2 0 -2 0 0 0 Z " fill="#50AC32" transform="translate(177,220)"/>
<path d="M0 0 C0.99 0 1.98 0 3 0 C3 3.3 3 6.6 3 10 C2.01 10.33 1.02 10.66 0 11 C-0.33 11.66 -0.66 12.32 -1 13 C-1 11.35 -1 9.7 -1 8 C-0.34 7.67 0.32 7.34 1 7 C1.65772428 3.97065509 1.65772428 3.97065509 2 1 C1.34 0.67 0.68 0.34 0 0 Z " fill="#42A521" transform="translate(227,208)"/>
<path d="M0 0 C0 1.98 0 3.96 0 6 C-1.65 6 -3.3 6 -5 6 C-4.67 4.35 -4.34 2.7 -4 1 C-1 0 -1 0 0 0 Z " fill="#90CA7C" transform="translate(177,209)"/>
<path d="M0 0 C1.98 0.495 1.98 0.495 4 1 C4 3.64 4 6.28 4 9 C2.68 8.67 1.36 8.34 0 8 C0.99 8 1.98 8 3 8 C2.67 6.68 2.34 5.36 2 4 C1.01 4 0.02 4 -1 4 C-0.67 2.68 -0.34 1.36 0 0 Z " fill="#36A013" transform="translate(212,207)"/>
<path d="M0 0 C0.33 0.66 0.66 1.32 1 2 C3.02463255 2.65213292 3.02463255 2.65213292 5 3 C3.68 3 2.36 3 1 3 C1 5.64 1 8.28 1 11 C0.67 10.34 0.34 9.68 0 9 C-0.66 9 -1.32 9 -2 9 C-1.34 6.03 -0.68 3.06 0 0 Z " fill="#28341D" transform="translate(202,79)"/>
<path d="M0 0 C2 1 2 1 4 3 C4.66 2.34 5.32 1.68 6 1 C5.67 2.65 5.34 4.3 5 6 C4.01 5.67 3.02 5.34 2 5 C1.67 5.66 1.34 6.32 1 7 C1 5.68 1 4.36 1 3 C0.01 3 -0.98 3 -2 3 C-2 2.34 -2 1.68 -2 1 C-1.34 0.67 -0.68 0.34 0 0 Z " fill="#63972A" transform="translate(212,62)"/>
<path d="M0 0 C0.33 1.32 0.66 2.64 1 4 C1.99 4 2.98 4 4 4 C4 5.65 4 7.3 4 9 C2.68 8.67 1.36 8.34 0 8 C0 5.36 0 2.72 0 0 Z " fill="#F7FBF5" transform="translate(147,212)"/>
<path d="M0 0 C0.33 0 0.66 0 1 0 C1 2.31 1 4.62 1 7 C-0.65 7.66 -2.3 8.32 -4 9 C-2.25 2.25 -2.25 2.25 0 0 Z " fill="#DA2C33" transform="translate(72,160)"/>
<path d="M0 0 C0.33 0 0.66 0 1 0 C1.21192221 5.19209404 0.5912689 9.126739 -1 14 C-1.33 14 -1.66 14 -2 14 C-2.1799928 8.78020872 -1.97094808 4.92737019 0 0 Z " fill="#9CAE6F" transform="translate(208,109)"/>
<path d="M0 0 C2 2 2 2 2.125 5.625 C2.08375 6.73875 2.0425 7.8525 2 9 C1.34 8.01 0.68 7.02 0 6 C-0.99 6 -1.98 6 -3 6 C-3 4.68 -3 3.36 -3 2 C-2.01 2 -1.02 2 0 2 C0 1.34 0 0.68 0 0 Z " fill="#A3D493" transform="translate(167,208)"/>
<path d="M0 0 C1.32 0 2.64 0 4 0 C4 0.99 4 1.98 4 3 C3.01 3 2.02 3 1 3 C1 4.32 1 5.64 1 7 C1.99 7.33 2.98 7.66 4 8 C2.68 8 1.36 8 0 8 C-1.125 2.25 -1.125 2.25 0 0 Z " fill="#4CAB2D" transform="translate(163,207)"/>
<path d="M0 0 C1.67110042 2.96178773 2.32682752 5.37071192 2.625 8.75 C2.69976562 9.54921875 2.77453125 10.3484375 2.8515625 11.171875 C2.90054688 11.77515625 2.94953125 12.3784375 3 13 C0.68468695 10.68468695 -0.07417343 9.13356684 -1 6 C-0.625 2.6875 -0.625 2.6875 0 0 Z " fill="#E04D52" transform="translate(117,161)"/>
<path d="M0 0 C2 4 2 4 3 7 C2.0625 9.1875 2.0625 9.1875 1 11 C0.67 10.01 0.34 9.02 0 8 C-0.99 8.495 -0.99 8.495 -2 9 C-1.34 6.03 -0.68 3.06 0 0 Z " fill="#E1565B" transform="translate(72,153)"/>
<path d="M0 0 C0.93423645 3.01031744 1.04449911 3.86650268 0 7 C0.66 7 1.32 7 2 7 C1.67 8.98 1.34 10.96 1 13 C0.01 12.34 -0.98 11.68 -2 11 C-1.125 3.375 -1.125 3.375 0 0 Z " fill="#E25B60" transform="translate(108,106)"/>
<path d="M0 0 C1.46726798 3.81489674 0.43336419 6.29011622 -1 10 C-1.66 10 -2.32 10 -3 10 C-2.69201674 8.51988629 -2.378482 7.04092675 -2.0625 5.5625 C-1.88847656 4.73878906 -1.71445313 3.91507812 -1.53515625 3.06640625 C-1 1 -1 1 0 0 Z " fill="#D9282F" transform="translate(111,103)"/>
<path d="M0 0 C1.67110042 2.96178773 2.32682752 5.37071192 2.625 8.75 C2.69976562 9.54921875 2.77453125 10.3484375 2.8515625 11.171875 C2.90054688 11.77515625 2.94953125 12.3784375 3 13 C0.72299943 10.72299943 0.47898308 9.58686902 -0.1875 6.5 C-0.36667969 5.7059375 -0.54585938 4.911875 -0.73046875 4.09375 C-1 2 -1 2 0 0 Z " fill="#EC9396" transform="translate(101,172)"/>
<path d="M0 0 C3.91402949 1.26941497 5.79072873 2.51167694 8 6 C7.01 6.33 6.02 6.66 5 7 C2.47411298 4.63707344 1.11179163 3.33537489 0 0 Z " fill="#C5DA8F" transform="translate(211,157)"/>
<path d="M0 0 C0.99 0.33 1.98 0.66 3 1 C4.1875 4.5625 4.1875 4.5625 5 8 C3.68 7.67 2.36 7.34 1 7 C0.67 4.69 0.34 2.38 0 0 Z " fill="#359147" transform="translate(221,146)"/>
<path d="M0 0 C2.12508244 3.18762365 2.5020163 5.26512223 3 9 C2.01 9.33 1.02 9.66 0 10 C-1.125 3.375 -1.125 3.375 0 0 Z " fill="#E25C61" transform="translate(75,92)"/>
<path d="M0 0 C1.64826111 2.96687001 2.44271087 5.65626525 3 9 C2.01 9.66 1.02 10.32 0 11 C-1.125 3.375 -1.125 3.375 0 0 Z " fill="#E25C61" transform="translate(90,79)"/>
<path d="M0 0 C0.99 0.33 1.98 0.66 3 1 C3 1.66 3 2.32 3 3 C3.66 3.33 4.32 3.66 5 4 C2.69 4.66 0.38 5.32 -2 6 C-2.33 5.34 -2.66 4.68 -3 4 C-2.67 3.01 -2.34 2.02 -2 1 C-1.34 0.67 -0.68 0.34 0 0 Z " fill="#78B03A" transform="translate(220,79)"/>
<path d="M0 0 C2.92509086 3.90012114 3.47535095 5.38308839 4 10 C3.01 10.33 2.02 10.66 1 11 C0.67 7.37 0.34 3.74 0 0 Z " fill="#2A2E26" transform="translate(245,74)"/>
<path d="M0 0 C2.4375 0.8125 2.4375 0.8125 5 2 C5.33 2.99 5.66 3.98 6 5 C5.34 5 4.68 5 4 5 C4 5.66 4 6.32 4 7 C3.34 7 2.68 7 2 7 C1.34 4.69 0.68 2.38 0 0 Z " fill="#16210B" transform="translate(229,57)"/>
<path d="M0 0 C1.32 0 2.64 0 4 0 C4 2.64 4 5.28 4 8 C3.67 6.68 3.34 5.36 3 4 C2.01 4 1.02 4 0 4 C0 2.68 0 1.36 0 0 Z " fill="#3BA219" transform="translate(149,212)"/>
<path d="M0 0 C1.15941038 3.47823115 0.70820884 5.45895578 0 9 C-1.5625 7.75 -1.5625 7.75 -3 6 C-2.72963853 3.02602384 -2.14553974 2.14553974 0 0 Z " fill="#040503" transform="translate(237,81)"/>
<path d="M0 0 C0.99 0.33 1.98 0.66 3 1 C2.67 2.32 2.34 3.64 2 5 C1.34 4.67 0.68 4.34 0 4 C0 5.65 0 7.3 0 9 C-0.33 9 -0.66 9 -1 9 C-1.09765625 2.84765625 -1.09765625 2.84765625 -1 1 C-0.67 0.67 -0.34 0.34 0 0 Z " fill="#58991B" transform="translate(212,72)"/>
<path d="M0 0 C1.98 0.495 1.98 0.495 4 1 C4 1.99 4 2.98 4 4 C2.35 4.33 0.7 4.66 -1 5 C-0.67 3.35 -0.34 1.7 0 0 Z " fill="#8BC44A" transform="translate(210,58)"/>
<path d="M0 0 C0.66 0 1.32 0 2 0 C1.67 3.3 1.34 6.6 1 10 C-1 8 -1 8 -1.1875 5 C-1 2 -1 2 0 0 Z " fill="#5EB342" transform="translate(238,207)"/>
<path d="M0 0 C0.33 0 0.66 0 1 0 C1.125 2.875 1.125 2.875 1 6 C0.34 6.66 -0.32 7.32 -1 8 C-2 7 -2 7 -2.1875 4.5625 C-2 2 -2 2 0 0 Z " fill="#D8232A" transform="translate(75,150)"/>
<path d="M0 0 C0.93423645 3.01031744 1.04449911 3.86650268 0 7 C0.66 7 1.32 7 2 7 C1.67 8.32 1.34 9.64 1 11 C0.67 10.34 0.34 9.68 0 9 C-0.66 9.66 -1.32 10.32 -2 11 C-1.125 3.375 -1.125 3.375 0 0 Z " fill="#E1575C" transform="translate(116,77)"/>
<path d="M0 0 C1.65 0 3.3 0 5 0 C5 1.65 5 3.3 5 5 C4.01 5.495 4.01 5.495 3 6 C3 5.01 3 4.02 3 3 C2.01 3 1.02 3 0 3 C0 2.01 0 1.02 0 0 Z " fill="#8BBE46" transform="translate(214,67)"/>
<path d="M0 0 C0.33 0 0.66 0 1 0 C1 2.97 1 5.94 1 9 C0.01 8.67 -0.98 8.34 -2 8 C-1.125 1.125 -1.125 1.125 0 0 Z " fill="#91C44A" transform="translate(230,64)"/>
<path d="M0 0 C0.66 0 1.32 0 2 0 C2.33 0.99 2.66 1.98 3 3 C2.34 3 1.68 3 1 3 C0.67 3.99 0.34 4.98 0 6 C-1.32 6 -2.64 6 -4 6 C-4 5.34 -4 4.68 -4 4 C-3.34 4 -2.68 4 -2 4 C-2 3.34 -2 2.68 -2 2 C-1.34 2 -0.68 2 0 2 C0 1.34 0 0.68 0 0 Z " fill="#5E9227" transform="translate(235,60)"/>
<path d="M0 0 C0.33 0 0.66 0 1 0 C1.125 2.875 1.125 2.875 1 6 C0.34 6.66 -0.32 7.32 -1 8 C-1.625 5.6875 -1.625 5.6875 -2 3 C-1.34 2.01 -0.68 1.02 0 0 Z " fill="#D9242B" transform="translate(116,85)"/>
<path d="M0 0 C0 1.98 0 3.96 0 6 C-1.9375 5.6875 -1.9375 5.6875 -4 5 C-4.33 4.01 -4.66 3.02 -5 2 C-1.125 0 -1.125 0 0 0 Z " fill="#518A1A" transform="translate(225,76)"/>
<path d="M0 0 C1.32 0.33 2.64 0.66 4 1 C4 3.97 4 6.94 4 10 C3.67 10 3.34 10 3 10 C3 8.02 3 6.04 3 4 C2.34 4 1.68 4 1 4 C0.67 2.68 0.34 1.36 0 0 Z " fill="#5EA21E" transform="translate(233,70)"/>
<path d="M0 0 C0.99 0.33 1.98 0.66 3 1 C3 2.98 3 4.96 3 7 C2.34 6.67 1.68 6.34 1 6 C1 5.34 1 4.68 1 4 C0.01 3.67 -0.98 3.34 -2 3 C-1.34 3 -0.68 3 0 3 C0 2.01 0 1.02 0 0 Z " fill="#83BE44" transform="translate(236,56)"/>
<path d="M0 0 C0.66 0 1.32 0 2 0 C1.67 2.97 1.34 5.94 1 9 C0.67 8.34 0.34 7.68 0 7 C-0.66 7 -1.32 7 -2 7 C-1.67 6.030625 -1.34 5.06125 -1 4.0625 C0.05173363 1.37850426 0.05173363 1.37850426 0 0 Z " fill="#56A34C" transform="translate(230,158)"/>
<path d="M0 0 C0.33 0 0.66 0 1 0 C1.33 3.3 1.66 6.6 2 10 C1.34 9.67 0.68 9.34 0 9 C-0.85056945 5.44307323 -1.16909807 3.50729422 0 0 Z " fill="#D8242A" transform="translate(106,122)"/>
<path d="M0 0 C0.66 0 1.32 0 2 0 C1.67 2.64 1.34 5.28 1 8 C0.34 8 -0.32 8 -1 8 C-0.67 5.36 -0.34 2.72 0 0 Z " fill="#D82127" transform="translate(82,121)"/>
<path d="M0 0 C0.99 0 1.98 0 3 0 C3 0.99 3 1.98 3 3 C2.01 3 1.02 3 0 3 C0.33 4.32 0.66 5.64 1 7 C0.01 7.495 0.01 7.495 -1 8 C-1.04241723 5.66705225 -1.04092937 3.33297433 -1 1 C-0.67 0.67 -0.34 0.34 0 0 Z " fill="#6D9C33" transform="translate(232,65)"/>
</svg>
